<svg width="190" height="60" viewBox="0 0 190 60" fill="none" xmlns="http://www.w3.org/2000/svg">
<rect width="190" height="60" rx="30" fill="#151400"/>
<path fill-rule="evenodd" clip-rule="evenodd" d="M92.3879 20.4629H93.7839V11.5228H92.3879V20.4629ZM62.9893 19.4671C63.9293 18.6936 64.4 17.5418 64.4 16.0117C64.4 14.6493 63.964 13.6028 63.0946 12.8709C62.3186 12.2235 61.168 11.8998 59.6413 11.8998C58.7773 11.8998 57.9773 11.9596 57.2346 12.0766V20.4369C57.804 20.5045 58.484 20.5383 59.2786 20.5383C60.8813 20.5383 62.1186 20.1808 62.9893 19.4671ZM62.1186 13.7666C62.6573 14.297 62.9266 15.0575 62.9266 16.0494C62.9266 17.1596 62.6333 18.0046 62.052 18.5844C61.4706 19.1642 60.6453 19.4541 59.576 19.4541C59.1186 19.4541 58.804 19.4424 58.632 19.4164V13.0607C58.9426 13.0009 59.3173 12.9723 59.7573 12.9723C60.7933 12.9723 61.58 13.2375 62.1186 13.7666ZM116.385 39.1036C116.385 40.5752 115.861 41.7725 114.809 42.6968C113.653 43.7069 112.044 44.2113 109.976 44.2113C108.067 44.2113 106.536 43.8525 105.377 43.1336L106.036 40.8235C107.284 41.5593 108.653 41.9285 110.145 41.9285C111.216 41.9285 112.049 41.6919 112.648 41.2213C113.244 40.7507 113.541 40.1189 113.541 39.3311C113.541 38.6291 113.296 38.0376 112.804 37.5579C112.315 37.0782 111.497 36.6323 110.356 36.2202C107.249 35.0905 105.697 33.4356 105.697 31.2594C105.697 29.8372 106.241 28.6711 107.331 27.7637C108.416 26.855 109.864 26.4013 111.675 26.4013C113.289 26.4013 114.631 26.6756 115.701 27.2229L114.991 29.4823C113.991 28.9519 112.86 28.6867 111.595 28.6867C110.595 28.6867 109.813 28.9272 109.253 29.4056C108.78 29.8333 108.543 30.3546 108.543 30.9721C108.543 31.6559 108.813 32.2214 109.357 32.666C109.831 33.0768 110.691 33.5214 111.939 34.0011C113.465 34.6004 114.587 35.3011 115.308 36.1045C116.027 36.9053 116.385 37.9076 116.385 39.1036ZM70.5266 43.9552H67.4986L65.84 38.8735H60.0746L58.4946 43.9552H55.5466L61.2586 26.6548H64.7866L70.5266 43.9552ZM65.34 36.7415L63.84 32.224C63.6813 31.7625 63.384 30.6757 62.9453 28.9649H62.892C62.7173 29.7007 62.436 30.7875 62.0493 32.224L60.576 36.7415H65.34ZM85.216 37.5644C85.216 39.686 84.628 41.363 83.452 42.5941C82.3987 43.69 81.0907 44.2373 79.5293 44.2373C77.844 44.2373 76.6333 43.6471 75.896 42.4667H75.8427V49.0382H73V35.5871C73 34.2533 72.964 32.8844 72.8947 31.4804H75.3947L75.5533 33.4577H75.6067C76.5547 31.9679 77.9933 31.2243 79.924 31.2243C81.4333 31.2243 82.6933 31.8054 83.7013 32.9689C84.712 34.1337 85.216 35.6651 85.216 37.5644ZM82.32 37.6658C82.32 36.4516 82.04 35.4506 81.4773 34.6628C80.8627 33.8412 80.0373 33.4304 79.0026 33.4304C78.3013 33.4304 77.664 33.6592 77.0947 34.1103C76.524 34.5653 76.1507 35.1594 75.976 35.8952C75.888 36.2384 75.844 36.5192 75.844 36.7402V38.8202C75.844 39.7276 76.1293 40.4933 76.7 41.1186C77.2707 41.7439 78.012 42.0559 78.924 42.0559C79.9947 42.0559 80.828 41.6529 81.424 40.8495C82.0213 40.0448 82.32 38.984 82.32 37.6658ZM98.1666 42.5941C99.3439 41.363 99.9319 39.686 99.9319 37.5644C99.9319 35.6651 99.4266 34.1337 98.4199 32.9689C97.4093 31.8054 96.1493 31.2243 94.6413 31.2243C92.7093 31.2243 91.2706 31.9679 90.3239 33.4577H90.2706L90.1119 31.4804H87.6119C87.6813 32.8844 87.7173 34.2533 87.7173 35.5871V49.0382H90.5599V42.4667H90.6133C91.3493 43.6471 92.5599 44.2373 94.2453 44.2373C95.8066 44.2373 97.1146 43.69 98.1666 42.5941ZM96.1919 34.6628C96.7546 35.4506 97.0359 36.4516 97.0359 37.6658C97.0359 38.984 96.7373 40.0448 96.1399 40.8495C95.5439 41.6529 94.7106 42.0559 93.6399 42.0559C92.7253 42.0559 91.9839 41.7426 91.4133 41.1186C90.8453 40.4933 90.5599 39.7276 90.5599 38.8202V36.7402C90.5599 36.5192 90.6053 36.2384 90.6919 35.8952C90.8666 35.1594 91.2386 34.5653 91.8093 34.1103C92.3799 33.6592 93.0159 33.4304 93.7186 33.4304C94.7546 33.4304 95.5773 33.8412 96.1919 34.6628ZM122.651 33.5604H125.784V31.4778H122.651V28.3721L119.859 29.1937V31.4778H117.992V33.5578H119.859V39.8459C119.859 41.4202 120.176 42.5408 120.807 43.209C121.44 43.8759 122.317 44.21 123.44 44.21C124.353 44.21 125.091 44.1073 125.651 43.9032L125.572 41.7985C125.239 41.8843 124.817 41.9272 124.309 41.9272C123.203 41.9272 122.651 41.1576 122.651 39.6171V33.5604ZM139.921 37.6151C139.921 39.5326 139.359 41.1069 138.236 42.338C137.059 43.6055 135.496 44.2373 133.548 44.2373C131.671 44.2373 130.176 43.6302 129.061 42.416C127.947 41.2018 127.389 39.6691 127.389 37.8218C127.389 35.8887 127.963 34.3053 129.113 33.0742C130.261 31.8418 131.811 31.2256 133.759 31.2256C135.636 31.2256 137.147 31.8327 138.287 33.0482C139.377 34.2273 139.921 35.7496 139.921 37.6151ZM136.972 37.7048C136.972 36.5543 136.72 35.5676 136.209 34.7447C135.613 33.7489 134.761 33.2523 133.657 33.2523C132.515 33.2523 131.647 33.7502 131.051 34.7447C130.54 35.5689 130.288 36.5712 130.288 37.7568C130.288 38.9073 130.54 39.894 131.051 40.7156C131.665 41.7114 132.524 42.208 133.632 42.208C134.717 42.208 135.569 41.701 136.184 40.6896C136.708 39.8511 136.972 38.854 136.972 37.7048ZM148.265 33.8412C148.58 33.8412 148.88 33.8672 149.161 33.9179V31.275C148.951 31.2425 148.713 31.2243 148.451 31.2243C147.713 31.2243 147.029 31.4466 146.396 31.8925C145.748 32.3878 145.275 33.0482 144.975 33.8685H144.896L144.792 31.4817H142.316C142.387 32.6621 142.423 33.9712 142.423 35.409L142.396 43.9552L145.237 43.9552V37.4097C145.237 36.4178 145.475 35.5962 145.948 34.9462C146.492 34.2091 147.265 33.8412 148.265 33.8412ZM161.875 37.1276C161.875 37.6242 161.841 38.0428 161.771 38.3847H153.243C153.276 39.6171 153.688 40.5596 154.48 41.2096C155.199 41.7907 156.128 42.0819 157.269 42.0819C158.532 42.0819 159.684 41.8856 160.72 41.4917L161.165 43.4157C159.955 43.9305 158.525 44.1866 156.876 44.1866C154.892 44.1866 153.335 43.6172 152.201 42.4797C151.071 41.3422 150.504 39.8147 150.504 37.8985C150.504 36.0174 151.031 34.4509 152.085 33.2016C153.189 31.8678 154.681 31.2009 156.559 31.2009C158.403 31.2009 159.799 31.8678 160.747 33.2016C161.497 34.2611 161.875 35.5715 161.875 37.1276ZM159.164 36.4087C159.183 35.5871 158.997 34.8773 158.612 34.278C158.12 33.5071 157.364 33.1223 156.347 33.1223C155.417 33.1223 154.661 33.498 154.084 34.252C153.611 34.8513 153.329 35.5702 153.243 36.4074H159.164V36.4087ZM72.2119 17.3481C72.2119 18.2906 71.9359 19.0628 71.3839 19.6686C70.8052 20.2913 70.0386 20.602 69.0812 20.602C68.1586 20.602 67.4239 20.3043 66.8759 19.7063C66.3292 19.1096 66.0559 18.3569 66.0559 17.4495C66.0559 16.5005 66.3372 15.7218 66.9026 15.1173C67.4679 14.5128 68.2279 14.2099 69.1852 14.2099C70.1079 14.2099 70.8492 14.5076 71.4106 15.1043C71.9439 15.6841 72.2119 16.4329 72.2119 17.3481ZM70.7626 17.3923C70.7626 16.8268 70.6372 16.3419 70.3879 15.9376C70.0946 15.4488 69.6772 15.2044 69.1346 15.2044C68.5732 15.2044 68.1466 15.4488 67.8532 15.9376C67.6026 16.3419 67.4786 16.8346 67.4786 17.417C67.4786 17.9825 67.6039 18.4674 67.8532 18.8717C68.1559 19.3605 68.5772 19.6049 69.1212 19.6049C69.6546 19.6049 70.0732 19.3566 70.3746 18.8587C70.6332 18.4466 70.7626 17.9578 70.7626 17.3923ZM82.6862 14.336L82.6866 14.3347V14.336H82.6862ZM81.3146 14.336H82.6862L80.72 20.4629H79.44L78.6253 17.8018C78.4186 17.1375 78.2506 16.4771 78.12 15.8219H78.0946C77.9733 16.4953 77.8053 17.1544 77.5893 17.8018L76.724 20.4629H75.4293L73.58 14.3347H75.016L75.7266 17.248C75.8986 17.937 76.04 18.5935 76.1533 19.2149H76.1786C76.2826 18.7027 76.4546 18.0501 76.6973 17.261L77.5893 14.336H78.728L79.5826 17.1986C79.7893 17.8967 79.9573 18.5688 80.0866 19.2162H80.1253C80.22 18.5857 80.3626 17.9136 80.552 17.1986L81.3146 14.336ZM89.9306 20.4629H88.5333V16.9529C88.5333 15.8713 88.1119 15.3305 87.2666 15.3305C86.8519 15.3305 86.5173 15.4787 86.2573 15.7764C85.9999 16.0741 85.8693 16.4251 85.8693 16.8268V20.4616H84.4719V16.0858C84.4719 15.5476 84.4546 14.9639 84.4213 14.3321H85.6493L85.7146 15.2902H85.7533C85.9159 14.9925 86.1586 14.7468 86.4773 14.5505C86.8559 14.3217 87.2799 14.206 87.7439 14.206C88.3306 14.206 88.8186 14.3906 89.2066 14.7611C89.6892 15.2148 89.9306 15.8921 89.9306 16.7917V20.4629ZM102.011 17.3481C102.011 18.2906 101.735 19.0628 101.183 19.6686C100.604 20.2913 99.836 20.602 98.88 20.602C97.956 20.602 97.2213 20.3043 96.6746 19.7063C96.1279 19.1096 95.8546 18.3569 95.8546 17.4495C95.8546 16.5005 96.136 15.7218 96.7013 15.1173C97.2666 14.5128 98.0266 14.2099 98.9826 14.2099C99.9066 14.2099 100.647 14.5076 101.209 15.1043C101.743 15.6841 102.011 16.4329 102.011 17.3481ZM100.56 17.3923C100.56 16.8268 100.435 16.3419 100.185 15.9376C99.8933 15.4488 99.4746 15.2044 98.9333 15.2044C98.3706 15.2044 97.9439 15.4488 97.6519 15.9376C97.4013 16.3419 97.2773 16.8346 97.2773 17.417C97.2773 17.9825 97.4026 18.4674 97.6519 18.8717C97.9546 19.3605 98.376 19.6049 98.92 19.6049C99.4533 19.6049 99.8706 19.3566 100.172 18.8587C100.432 18.4466 100.56 17.9578 100.56 17.3923ZM107.519 20.4629H108.773C108.713 20.1015 108.683 19.614 108.683 19.0017V16.7449C108.683 15.0549 107.859 14.2099 106.216 14.2099C105.365 14.2099 104.644 14.3867 104.06 14.739L104.344 15.6334C104.816 15.3318 105.363 15.1797 105.983 15.1797C106.853 15.1797 107.288 15.5827 107.288 16.39V16.5044C106.124 16.4953 105.22 16.689 104.577 17.0842C103.933 17.4794 103.613 18.0501 103.613 18.7989C103.613 19.2942 103.777 19.7115 104.105 20.0469C104.467 20.4161 104.947 20.602 105.54 20.602C106.335 20.602 106.947 20.3199 107.376 19.757H107.415L107.519 20.4629ZM107.323 17.4118V18.3569C107.323 18.4492 107.315 18.5298 107.3 18.5961C107.24 18.8912 107.079 19.1317 106.816 19.3215C106.555 19.51 106.268 19.6049 105.961 19.6049C105.688 19.6049 105.459 19.5256 105.279 19.3657C105.099 19.2058 105.011 18.9666 105.011 18.6468C105.011 17.7979 105.781 17.3858 107.323 17.4118ZM116.713 20.4629H115.473L115.408 19.4788H115.369C114.973 20.2276 114.299 20.602 113.351 20.602C112.593 20.602 111.963 20.3121 111.463 19.7323C110.963 19.1525 110.713 18.3998 110.713 17.4755C110.713 16.4836 110.984 15.6802 111.528 15.0666C112.055 14.4946 112.7 14.2086 113.468 14.2086C114.312 14.2086 114.903 14.4855 115.239 15.0406H115.265V11.5228H116.664V18.8119C116.664 19.4086 116.68 19.9585 116.713 20.4629ZM115.265 17.8785V16.8567C115.265 16.6799 115.252 16.5369 115.227 16.4277C115.148 16.1001 114.979 15.8245 114.721 15.6022C114.461 15.3799 114.148 15.2681 113.787 15.2681C113.265 15.2681 112.857 15.4696 112.557 15.8739C112.26 16.2782 112.109 16.7943 112.109 17.4248C112.109 18.0306 112.252 18.522 112.539 18.9003C112.841 19.3033 113.249 19.5048 113.76 19.5048C114.219 19.5048 114.585 19.3371 114.864 19.0004C115.133 18.6897 115.265 18.3153 115.265 17.8785ZM127.836 19.6686C128.388 19.0628 128.664 18.2906 128.664 17.3481C128.664 16.4329 128.396 15.6841 127.863 15.1043C127.303 14.5076 126.56 14.2099 125.639 14.2099C124.68 14.2099 123.92 14.5128 123.355 15.1173C122.789 15.7218 122.508 16.5005 122.508 17.4495C122.508 18.3569 122.781 19.1096 123.328 19.7063C123.877 20.3043 124.612 20.602 125.533 20.602C126.492 20.602 127.257 20.2913 127.836 19.6686ZM126.841 15.9376C127.091 16.3419 127.216 16.8268 127.216 17.3923C127.216 17.9578 127.085 18.4466 126.828 18.8587C126.527 19.3566 126.107 19.6049 125.573 19.6049C125.029 19.6049 124.608 19.3605 124.305 18.8717C124.056 18.4674 123.931 17.9825 123.931 17.417C123.931 16.8346 124.055 16.3419 124.305 15.9376C124.6 15.4488 125.027 15.2044 125.587 15.2044C126.131 15.2044 126.547 15.4488 126.841 15.9376ZM136.177 20.4629L134.781 20.4629V16.9529C134.781 15.8713 134.36 15.3305 133.513 15.3305C133.099 15.3305 132.764 15.4787 132.505 15.7764C132.247 16.0741 132.117 16.4251 132.117 16.8268V20.4616H130.719V16.0858C130.719 15.5476 130.703 14.9639 130.669 14.3321H131.896L131.961 15.2902H132C132.164 14.9925 132.407 14.7468 132.724 14.5505C133.104 14.3217 133.527 14.206 133.992 14.206C134.577 14.206 135.065 14.3906 135.453 14.7611C135.937 15.2148 136.177 15.8921 136.177 16.7917V20.4629ZM144.043 15.3552H145.58V14.3334H144.041V12.8085L142.672 13.2115V14.3347H141.753V15.3552H142.672V18.4453C142.672 19.2188 142.827 19.77 143.139 20.0976C143.449 20.4252 143.879 20.589 144.431 20.589C144.877 20.589 145.24 20.5383 145.516 20.4369L145.48 19.4034C145.316 19.4463 145.108 19.4671 144.857 19.4671C144.316 19.4671 144.043 19.0888 144.043 18.3322V15.3552ZM152.979 20.4629H151.58V16.9789C151.58 15.8804 151.159 15.3305 150.315 15.3305C149.667 15.3305 149.224 15.649 148.981 16.286C148.94 16.4199 148.916 16.5837 148.916 16.7761V20.4616H147.52V11.5228H148.916V15.2161H148.943C149.383 14.544 150.013 14.2086 150.831 14.2086C151.409 14.2086 151.888 14.3932 152.268 14.7637C152.741 15.2252 152.979 15.9116 152.979 16.819V20.4629ZM160.557 17.7264C160.591 17.5587 160.609 17.3533 160.609 17.1089C160.609 16.3445 160.424 15.701 160.049 15.181C159.585 14.5258 158.899 14.1982 157.995 14.1982C157.071 14.1982 156.339 14.5258 155.797 15.181C155.279 15.7946 155.021 16.5642 155.021 17.4885C155.021 18.4297 155.297 19.1798 155.855 19.7388C156.409 20.2978 157.176 20.5773 158.149 20.5773C158.961 20.5773 159.663 20.4512 160.259 20.199L160.04 19.2526C159.531 19.4463 158.965 19.5425 158.345 19.5425C157.785 19.5425 157.328 19.3995 156.973 19.1135C156.585 18.7937 156.385 18.3322 156.367 17.7264H160.557ZM159.005 15.7101C159.195 16.0039 159.287 16.3523 159.276 16.7566H156.367C156.412 16.3445 156.549 15.9922 156.781 15.6971C157.065 15.3266 157.437 15.142 157.893 15.142C158.393 15.142 158.763 15.3318 159.005 15.7101Z" fill="white"/>
<path d="M39.1707 28.7191C39.132 24.5292 42.6894 22.4908 42.852 22.3959C40.8374 19.532 37.7147 19.1407 36.6174 19.1095C33.9947 18.8404 31.4507 20.6396 30.1147 20.6396C28.752 20.6396 26.6947 19.1355 24.4774 19.1797C21.624 19.2226 18.9547 20.8333 17.4907 23.3345C14.4694 28.4344 16.7227 35.9289 19.6174 40.0512C21.0654 42.0701 22.7574 44.3243 24.972 44.245C27.1387 44.1579 27.948 42.8982 30.5627 42.8982C33.1534 42.8982 33.9134 44.245 36.172 44.1943C38.4974 44.1579 39.9614 42.1663 41.3587 40.1292C43.032 37.8152 43.704 35.5363 43.7307 35.4193C43.676 35.4011 39.2147 33.741 39.1707 28.7191Z" fill="white"/>
<path d="M34.904 16.3977C36.0694 14.9768 36.8667 13.0437 36.6454 11.082C34.9587 11.1548 32.8494 12.2195 31.6347 13.6092C30.56 14.8338 29.6 16.841 29.848 18.7286C31.7427 18.8664 33.688 17.7965 34.904 16.3977Z" fill="white"/>
</svg>
