<svg width="190" height="60" viewBox="0 0 190 60" fill="none" xmlns="http://www.w3.org/2000/svg">
<rect width="190" height="60" rx="30" fill="#151400"/>
<path fill-rule="evenodd" clip-rule="evenodd" d="M90.0396 37.8082C90.0396 34.602 92.5944 32.2783 95.7218 32.2783C98.8558 32.2783 101.411 34.602 101.411 37.8082C101.411 40.9883 98.8558 43.3364 95.7218 43.3364C92.5944 43.3364 90.0396 40.9883 90.0396 37.8082ZM92.5295 37.8082C92.5295 39.776 94.0058 41.1589 95.7218 41.1589C97.4377 41.1589 98.9207 39.776 98.9207 37.8082C98.9207 35.8143 97.4377 34.4558 95.7218 34.4558C94.0058 34.4558 92.5295 35.8143 92.5295 37.8082ZM77.6417 37.8082C77.6417 34.602 80.1898 32.2783 83.3238 32.2783C86.4562 32.2783 89.006 34.602 89.006 37.8082C89.006 40.9883 86.4562 43.3364 83.3238 43.3364C80.1898 43.3364 77.6417 40.9883 77.6417 37.8082ZM80.1249 37.8082C80.1249 39.776 81.6062 41.1589 83.3238 41.1589C85.0398 41.1589 86.5161 39.776 86.5161 37.8082C86.5161 35.8143 85.0398 34.4558 83.3238 34.4558C81.6062 34.4558 80.1249 35.8143 80.1249 37.8082ZM68.5708 36.3229V33.9732H76.6597C76.7429 34.3924 76.7895 34.8945 76.7895 35.4405C76.7895 37.1988 76.2952 39.3763 74.709 40.9249C73.1612 42.4979 71.1922 43.3364 68.5708 43.3364C63.7208 43.3364 59.6448 39.4835 59.6448 34.7483C59.6448 30.013 63.7208 26.1602 68.5708 26.1602C71.2505 26.1602 73.1612 27.1888 74.5975 28.5278L72.9015 30.1837C71.8746 29.2379 70.4832 28.5083 68.5708 28.5083C65.034 28.5083 62.2645 31.2952 62.2645 34.7483C62.2645 38.2014 65.034 40.9883 68.5708 40.9883C70.866 40.9883 72.1725 40.0864 73.0114 39.2739C73.7004 38.6012 74.1498 37.6359 74.3179 36.3229H68.5708ZM124.048 32.2783C126.987 32.2783 128.43 34.5582 128.898 35.7948L129.159 36.4237L121.584 39.4835C122.164 40.595 123.067 41.1589 124.327 41.1589C125.596 41.1589 126.473 40.5495 127.117 39.6298L129.048 40.8859C128.43 41.7878 126.929 43.3364 124.327 43.3364C121.11 43.3364 118.71 40.9054 118.71 37.8082C118.71 34.5192 121.135 32.2783 124.048 32.2783ZM124.133 34.4119C122.871 34.4119 121.11 35.5039 121.175 37.6359L126.24 35.5852C125.96 34.8945 125.121 34.4119 124.133 34.4119ZM117.508 43H115.019V26.75H117.508V43ZM110.858 33.51H110.941V32.6147H113.301V42.5434C113.301 46.6238 110.838 48.3008 107.918 48.3008C105.175 48.3008 103.523 46.497 102.899 45.0313L105.064 44.1489C105.453 45.0508 106.397 46.1233 107.918 46.1233C109.784 46.1233 110.941 44.9874 110.941 42.8733V42.0803H110.858C110.298 42.7465 109.232 43.3364 107.88 43.3364C105.044 43.3364 102.451 40.9249 102.451 37.826C102.451 34.7093 105.044 32.2783 107.88 32.2783C109.232 32.2783 110.298 32.8633 110.858 33.51ZM104.941 37.826C104.941 39.7565 106.377 41.1589 108.093 41.1589C109.784 41.1589 111.117 39.7565 111.117 37.826C111.117 35.8777 109.784 34.4558 108.093 34.4558C106.377 34.4558 104.941 35.8777 104.941 37.826ZM134.6 26.75H140.555C143.306 26.75 146.018 28.6984 146.018 31.7957C146.018 34.8945 143.313 36.8429 140.555 36.8429L137.083 36.8429V43H134.6V26.75ZM137.083 34.5825L140.62 34.5825C142.474 34.5825 143.533 33.0534 143.533 31.7957C143.533 30.5135 142.474 29.0104 140.62 29.0104H137.083V34.5825ZM151.543 34.7353C152.311 33.0209 154.176 32.2474 155.97 32.2474C158.825 32.2474 161.029 33.8594 161.029 36.7405V42.974H158.63V41.7179H158.545C157.966 42.5743 157.044 43.3104 155.373 43.3104C153.188 43.3104 151.244 41.908 151.244 39.7305C151.244 37.3499 153.662 36.0743 156.035 36.0743C157.219 36.0743 158.181 36.4497 158.63 36.7032V36.5325C158.61 35.1984 157.304 34.4428 156.015 34.4428C155.093 34.4428 154.221 34.7353 153.747 35.6372L151.543 34.7353ZM153.727 39.776C153.727 40.7592 154.859 41.1524 155.671 41.1524C157.109 41.1524 158.435 40.0864 158.63 38.5817C157.966 38.2713 157.453 38.0357 156.36 38.0357C155.138 38.0357 153.727 38.5183 153.727 39.776ZM166.912 39.6477L169.766 32.6033H172.529L165.697 47.9254H163.102L165.632 42.4475L161.198 32.6033H163.876L166.827 39.6477H166.912ZM149.872 43H147.382V26.75H149.872V43ZM67.1478 19.9201C67.8036 19.2717 68.1365 18.4023 68.1365 17.3168C68.1365 17.1267 68.1231 16.9301 68.0765 16.7269H64.2085V17.6662H67.1079C67.0496 18.3389 66.8283 18.8654 66.4388 19.2473C65.8479 19.8242 65.099 20.1167 64.2085 20.1167C63.3697 20.1167 62.6424 19.8242 62.0249 19.2538C61.4141 18.6753 61.1078 17.9197 61.1078 16.9999C61.1078 16.0802 61.4141 15.3311 62.0249 14.7526C62.6424 14.1757 63.3697 13.8897 64.2085 13.8897C65.1389 13.8897 65.8663 14.1936 66.4005 14.8094L67.0962 14.1237C66.79 13.7629 66.3672 13.4704 65.8479 13.2543C65.327 13.0398 64.7811 12.9244 64.2085 12.9244C63.0585 12.9244 62.0765 13.3177 61.2709 14.0993C60.4637 14.8793 60.0609 15.8446 60.0609 16.9999C60.0609 18.1553 60.4637 19.1206 61.2709 19.9071C62.0765 20.6822 63.0585 21.0754 64.2085 21.0754C65.4119 21.0754 66.3939 20.6887 67.1478 19.9201ZM70.6397 14.0604H74.273V13.1033H69.6111V20.8968L74.273 20.8968V19.9396L70.6397 19.9396V17.4696H73.9152V16.5304H70.6397V14.0604ZM78.6036 20.8968H77.575V14.0604H75.3464V13.1033H80.8339V14.0604H78.6036V20.8968ZM84.8052 13.1033V20.8968H85.8321V13.1033H84.8052ZM90.3841 20.8968H89.3639V14.0604L87.127 14.0604V13.1033L92.621 13.1033V14.0604H90.3841V20.8968ZM100.084 21.0754C101.247 21.0754 102.223 20.6822 103.01 19.8941C103.796 19.1076 104.187 18.1423 104.187 16.9999C104.187 15.8641 103.796 14.9053 103.003 14.1123C102.216 13.3177 101.241 12.9244 100.084 12.9244C98.914 12.9244 97.9387 13.3177 97.1514 14.1058C96.3659 14.8923 95.9747 15.8576 95.9747 16.9999C95.9747 18.1423 96.3659 19.1076 97.1514 19.8941C97.9387 20.6822 98.914 21.0754 100.084 21.0754ZM100.084 20.1167C99.2253 20.1167 98.5046 19.8242 97.9121 19.2408C97.3212 18.6574 97.0216 17.9083 97.0216 16.9999C97.0216 16.0916 97.3212 15.3424 97.9121 14.7591C98.5046 14.1757 99.2253 13.8832 100.084 13.8832C100.936 13.8832 101.664 14.1757 102.249 14.7591C102.84 15.3424 103.14 16.0916 103.14 16.9999C103.14 17.9083 102.84 18.6574 102.249 19.2408C101.664 19.8242 100.936 20.1167 100.084 20.1167ZM105.63 20.8968V13.1033H106.878L110.759 19.1645H110.804L110.759 17.6663V13.1033H111.786V20.8968H110.714L106.65 14.5365H106.605L106.65 16.0413V20.8968H105.63Z" fill="white"/>
<path d="M68.5708 33.9732H68.4708V33.8732H68.5708V33.9732ZM68.5708 36.3229V36.4229H68.4708V36.3229H68.5708ZM76.6597 33.9732V33.8732H76.7418L76.7578 33.9537L76.6597 33.9732ZM74.709 40.9249L74.6377 40.8548L74.6392 40.8534L74.709 40.9249ZM74.5975 28.5278L74.6657 28.4546L74.7424 28.5261L74.6674 28.5993L74.5975 28.5278ZM72.9015 30.1837L72.9714 30.2552L72.9035 30.3215L72.8338 30.2572L72.9015 30.1837ZM73.0114 39.2739L73.0812 39.3455L73.0809 39.3457L73.0114 39.2739ZM74.3179 36.3229V36.2229H74.4315L74.4171 36.3356L74.3179 36.3229ZM128.898 35.7948L128.805 35.8332L128.804 35.8302L128.898 35.7948ZM129.159 36.4237L129.251 36.3853L129.29 36.4786L129.197 36.5164L129.159 36.4237ZM121.584 39.4835L121.496 39.5297L121.445 39.4321L121.547 39.3908L121.584 39.4835ZM127.117 39.6298L127.035 39.5724L127.09 39.4933L127.171 39.546L127.117 39.6298ZM129.048 40.8859L129.102 40.8021L129.188 40.8579L129.13 40.9424L129.048 40.8859ZM121.175 37.6359L121.213 37.7286L121.079 37.7825L121.075 37.639L121.175 37.6359ZM126.24 35.5852L126.332 35.5476L126.37 35.6403L126.277 35.6779L126.24 35.5852ZM115.019 43V43.1H114.919V43H115.019ZM117.508 43H117.608V43.1H117.508V43ZM115.019 26.75H114.919V26.65H115.019V26.75ZM117.508 26.75V26.65H117.608V26.75H117.508ZM110.941 33.51H111.041V33.61H110.941V33.51ZM110.858 33.51V33.61H110.812L110.782 33.5754L110.858 33.51ZM110.941 32.6147H110.841V32.5147H110.941V32.6147ZM113.301 32.6147V32.5147H113.401V32.6147H113.301ZM102.899 45.0313L102.807 45.0705L102.767 44.977L102.861 44.9387L102.899 45.0313ZM105.064 44.1489L105.026 44.0563L105.117 44.0193L105.156 44.1093L105.064 44.1489ZM110.941 42.0803V41.9803H111.041V42.0803H110.941ZM110.858 42.0803L110.781 42.016L110.811 41.9803H110.858V42.0803ZM134.6 26.75H134.5V26.65H134.6V26.75ZM137.083 36.8429H136.983V36.7429H137.083V36.8429ZM137.083 43H137.183V43.1H137.083V43ZM134.6 43V43.1H134.5V43H134.6ZM137.083 34.5825V34.6825H136.983V34.5825H137.083ZM137.083 29.0104H136.983V28.9104H137.083V29.0104ZM151.543 34.7353L151.505 34.8278L151.41 34.7887L151.452 34.6944L151.543 34.7353ZM161.029 42.974H161.129V43.074H161.029V42.974ZM158.63 42.974V43.074H158.53V42.974H158.63ZM158.63 41.7179V41.6179H158.73V41.7179H158.63ZM158.545 41.7179L158.462 41.6619L158.492 41.6179H158.545V41.7179ZM158.63 36.7032H158.73V36.8744L158.581 36.7903L158.63 36.7032ZM158.63 36.5325L158.73 36.531V36.5325H158.63ZM153.747 35.6372L153.835 35.6837L153.793 35.7641L153.709 35.7297L153.747 35.6372ZM158.63 38.5817L158.673 38.4911L158.739 38.522L158.729 38.5945L158.63 38.5817ZM169.766 32.6033L169.674 32.5657L169.699 32.5033H169.766V32.6033ZM166.912 39.6477L167.005 39.6852L166.979 39.7477H166.912V39.6477ZM172.529 32.6033V32.5033H172.683L172.621 32.644L172.529 32.6033ZM165.697 47.9254L165.788 47.9661L165.762 48.0254H165.697V47.9254ZM163.102 47.9254V48.0254H162.946L163.012 47.8835L163.102 47.9254ZM165.632 42.4475L165.723 42.4065L165.742 42.4481L165.723 42.4895L165.632 42.4475ZM161.198 32.6033L161.107 32.6444L161.044 32.5033H161.198V32.6033ZM163.876 32.6033V32.5033H163.943L163.968 32.5646L163.876 32.6033ZM166.827 39.6477V39.7477H166.761L166.735 39.6863L166.827 39.6477ZM147.382 43V43.1H147.282V43H147.382ZM149.872 43H149.972V43.1H149.872V43ZM147.382 26.75H147.282V26.65H147.382V26.75ZM149.872 26.75V26.65H149.972V26.75H149.872ZM67.1478 19.9201L67.0764 19.85L67.0775 19.849L67.1478 19.9201ZM68.0765 16.7269V16.6269H68.1562L68.174 16.7046L68.0765 16.7269ZM64.2085 16.7269H64.1085V16.6269H64.2085V16.7269ZM64.2085 17.6662V17.7662H64.1085V17.6662H64.2085ZM67.1079 17.6662V17.5662H67.2169L67.2075 17.6748L67.1079 17.6662ZM66.4388 19.2473L66.5088 19.3187L66.5087 19.3189L66.4388 19.2473ZM62.0249 19.2538L61.957 19.3273L61.9561 19.3264L62.0249 19.2538ZM62.0249 14.7526L61.9561 14.68L61.9566 14.6795L62.0249 14.7526ZM66.4005 14.8094L66.4707 14.8807L66.3948 14.9555L66.325 14.875L66.4005 14.8094ZM67.0962 14.1237L67.1725 14.059L67.2325 14.1297L67.1664 14.1949L67.0962 14.1237ZM65.8479 13.2543L65.886 13.1618L65.8864 13.162L65.8479 13.2543ZM61.2709 14.0993L61.3405 14.1711L61.3404 14.1712L61.2709 14.0993ZM61.2709 19.9071L61.2016 19.9791L61.2011 19.9787L61.2709 19.9071ZM74.273 14.0604H74.373V14.1604H74.273V14.0604ZM70.6397 14.0604H70.5397V13.9604H70.6397V14.0604ZM74.273 13.1033V13.0033H74.373V13.1033H74.273ZM69.6111 13.1033H69.5111V13.0033H69.6111V13.1033ZM69.6111 20.8968V20.9968H69.5111V20.8968H69.6111ZM74.273 20.8968H74.373V20.9968H74.273V20.8968ZM74.273 19.9396V19.8396H74.373V19.9396H74.273ZM70.6397 19.9396V20.0396H70.5397V19.9396H70.6397ZM70.6397 17.4696H70.5397V17.3696H70.6397V17.4696ZM73.9152 17.4696H74.0152V17.5696H73.9152V17.4696ZM73.9152 16.5304V16.4304H74.0152V16.5304H73.9152ZM70.6397 16.5304V16.6304H70.5397V16.5304H70.6397ZM77.575 20.8968V20.9968H77.475V20.8968H77.575ZM78.6036 20.8968H78.7036V20.9968H78.6036V20.8968ZM77.575 14.0604V13.9604H77.675V14.0604H77.575ZM75.3464 14.0604V14.1604H75.2464V14.0604H75.3464ZM75.3464 13.1033H75.2464V13.0033H75.3464V13.1033ZM80.8339 13.1033V13.0033H80.9339V13.1033H80.8339ZM80.8339 14.0604H80.9339V14.1604H80.8339V14.0604ZM78.6036 14.0604H78.5036V13.9604H78.6036V14.0604ZM84.8052 20.8968V20.9968H84.7052V20.8968H84.8052ZM84.8052 13.1033H84.7052V13.0033H84.8052V13.1033ZM85.8321 20.8968H85.9321V20.9968H85.8321V20.8968ZM85.8321 13.1033V13.0033H85.9321V13.1033H85.8321ZM89.3639 20.8968V20.9968H89.2639V20.8968H89.3639ZM90.3841 20.8968H90.4841V20.9968H90.3841V20.8968ZM89.3639 14.0604V13.9604H89.4639V14.0604H89.3639ZM87.127 14.0604V14.1604H87.027V14.0604H87.127ZM87.127 13.1033H87.027V13.0033H87.127V13.1033ZM92.621 13.1033V13.0033H92.721V13.1033H92.621ZM92.621 14.0604H92.721V14.1604H92.621V14.0604ZM90.3841 14.0604H90.2841V13.9604H90.3841V14.0604ZM103.01 19.8941L103.081 19.9647L103.081 19.9647L103.01 19.8941ZM103.003 14.1123L102.933 14.183L102.932 14.1827L103.003 14.1123ZM97.1514 14.1058L97.0807 14.0351V14.0351L97.1514 14.1058ZM97.1514 19.8941L97.0807 19.9647V19.9647L97.1514 19.8941ZM97.9121 19.2408L97.8419 19.3121L97.8418 19.312L97.9121 19.2408ZM97.9121 14.7591L97.8418 14.6879L97.8419 14.6878L97.9121 14.7591ZM102.249 14.7591L102.179 14.8302L102.179 14.8299L102.249 14.7591ZM102.249 19.2408L102.179 19.17L102.179 19.1697L102.249 19.2408ZM105.63 13.1033H105.53V13.0033H105.63V13.1033ZM105.63 20.8968V20.9968H105.53V20.8968H105.63ZM106.878 13.1033V13.0033H106.933L106.962 13.0493L106.878 13.1033ZM110.759 19.1645V19.2645H110.705L110.675 19.2184L110.759 19.1645ZM110.804 19.1645L110.904 19.1615L110.907 19.2645H110.804V19.1645ZM110.759 17.6663L110.659 17.6693V17.6663H110.759ZM110.759 13.1033H110.659V13.0033H110.759V13.1033ZM111.786 13.1033V13.0033H111.886V13.1033H111.786ZM111.786 20.8968H111.886V20.9968H111.786V20.8968ZM110.714 20.8968V20.9968H110.66L110.63 20.9506L110.714 20.8968ZM106.65 14.5365V14.4365H106.705L106.734 14.4827L106.65 14.5365ZM106.605 14.5365L106.505 14.5395L106.502 14.4365H106.605V14.5365ZM106.65 16.0413L106.75 16.0383V16.0413H106.65ZM106.65 20.8968H106.75V20.9968H106.65V20.8968ZM95.7218 32.3783C92.6451 32.3783 90.1396 34.6617 90.1396 37.8082H89.9396C89.9396 34.5424 92.5437 32.1783 95.7218 32.1783V32.3783ZM101.311 37.8082C101.311 34.6618 98.8052 32.3783 95.7218 32.3783V32.1783C98.9064 32.1783 101.511 34.5423 101.511 37.8082H101.311ZM95.7218 43.2364C98.8049 43.2364 101.311 40.9288 101.311 37.8082H101.511C101.511 41.0478 98.9067 43.4364 95.7218 43.4364V43.2364ZM90.1396 37.8082C90.1396 40.9289 92.6454 43.2364 95.7218 43.2364V43.4364C92.5434 43.4364 89.9396 41.0477 89.9396 37.8082H90.1396ZM95.7218 41.2589C93.9493 41.2589 92.4295 39.83 92.4295 37.8082H92.6295C92.6295 39.7221 94.0623 41.0589 95.7218 41.0589V41.2589ZM99.0207 37.8082C99.0207 39.8302 97.494 41.2589 95.7218 41.2589V41.0589C97.3815 41.0589 98.8207 39.7218 98.8207 37.8082H99.0207ZM95.7218 34.3558C97.4935 34.3558 99.0207 35.7596 99.0207 37.8082H98.8207C98.8207 35.8689 97.3819 34.5558 95.7218 34.5558V34.3558ZM92.4295 37.8082C92.4295 35.7599 93.9497 34.3558 95.7218 34.3558V34.5558C94.0619 34.5558 92.6295 35.8687 92.6295 37.8082H92.4295ZM83.3238 32.3783C80.2406 32.3783 77.7417 34.6616 77.7417 37.8082H77.5417C77.5417 34.5424 80.1391 32.1783 83.3238 32.1783V32.3783ZM88.906 37.8082C88.906 34.6616 86.4054 32.3783 83.3238 32.3783V32.1783C86.5069 32.1783 89.106 34.5424 89.106 37.8082H88.906ZM83.3238 43.2364C86.4052 43.2364 88.906 40.9289 88.906 37.8082H89.106C89.106 41.0476 86.5072 43.4364 83.3238 43.4364V43.2364ZM77.7417 37.8082C77.7417 40.929 80.2409 43.2364 83.3238 43.2364V43.4364C80.1388 43.4364 77.5417 41.0476 77.5417 37.8082H77.7417ZM83.3238 41.2589C81.5499 41.2589 80.0249 39.8302 80.0249 37.8082H80.2249C80.2249 39.7219 81.6625 41.0589 83.3238 41.0589V41.2589ZM86.6161 37.8082C86.6161 39.83 85.0963 41.2589 83.3238 41.2589V41.0589C84.9833 41.0589 86.4161 39.7221 86.4161 37.8082H86.6161ZM83.3238 34.3558C85.0959 34.3558 86.6161 35.7599 86.6161 37.8082H86.4161C86.4161 35.8687 84.9837 34.5558 83.3238 34.5558V34.3558ZM80.0249 37.8082C80.0249 35.7597 81.5504 34.3558 83.3238 34.3558V34.5558C81.662 34.5558 80.2249 35.8689 80.2249 37.8082H80.0249ZM68.6708 33.9732V36.3229H68.4708V33.9732H68.6708ZM76.6597 34.0732H68.5708V33.8732H76.6597V34.0732ZM76.6895 35.4405C76.6895 34.8999 76.6433 34.4044 76.5616 33.9926L76.7578 33.9537C76.8425 34.3804 76.8895 34.8892 76.8895 35.4405H76.6895ZM74.6392 40.8534C76.199 39.3304 76.6895 37.1836 76.6895 35.4405H76.8895C76.8895 37.214 76.3913 39.4222 74.7789 40.9965L74.6392 40.8534ZM68.5708 43.2364C71.1677 43.2364 73.1102 42.4071 74.6378 40.8548L74.7803 40.995C73.2121 42.5887 71.2167 43.4364 68.5708 43.4364V43.2364ZM59.7448 34.7483C59.7448 39.4242 63.7719 43.2364 68.5708 43.2364V43.4364C63.6698 43.4364 59.5448 39.5429 59.5448 34.7483H59.7448ZM68.5708 26.2602C63.7719 26.2602 59.7448 30.0724 59.7448 34.7483H59.5448C59.5448 29.9537 63.6698 26.0602 68.5708 26.0602V26.2602ZM74.5293 28.6009C73.1083 27.2762 71.2211 26.2602 68.5708 26.2602V26.0602C71.2798 26.0602 73.214 27.1013 74.6657 28.4546L74.5293 28.6009ZM72.8317 30.1121L74.5277 28.4562L74.6674 28.5993L72.9714 30.2552L72.8317 30.1121ZM68.5708 28.4083C70.5118 28.4083 71.9267 29.1499 72.9693 30.1101L72.8338 30.2572C71.8225 29.3259 70.4545 28.6083 68.5708 28.6083V28.4083ZM62.1645 34.7483C62.1645 31.2394 64.9793 28.4083 68.5708 28.4083V28.6083C65.0887 28.6083 62.3645 31.3509 62.3645 34.7483H62.1645ZM68.5708 41.0883C64.9793 41.0883 62.1645 38.2571 62.1645 34.7483H62.3645C62.3645 38.1457 65.0887 40.8883 68.5708 40.8883V41.0883ZM73.0809 39.3457C72.2281 40.1718 70.8977 41.0883 68.5708 41.0883V40.8883C70.8342 40.8883 72.117 40.001 72.9418 39.2021L73.0809 39.3457ZM74.4171 36.3356C74.2469 37.6649 73.7903 38.6532 73.0812 39.3455L72.9415 39.2024C73.6105 38.5492 74.0527 37.6069 74.2187 36.3102L74.4171 36.3356ZM68.5708 36.2229H74.3179V36.4229H68.5708V36.2229ZM128.804 35.8302C128.342 34.6092 126.925 32.3783 124.048 32.3783V32.1783C127.049 32.1783 128.518 34.5071 128.991 35.7594L128.804 35.8302ZM129.067 36.462L128.805 35.8332L128.99 35.7564L129.251 36.3853L129.067 36.462ZM121.547 39.3908L129.122 36.3309L129.197 36.5164L121.622 39.5763L121.547 39.3908ZM124.327 41.2589C123.682 41.2589 123.122 41.1143 122.648 40.8232C122.174 40.5322 121.792 40.0985 121.496 39.5297L121.673 39.4373C121.956 39.9801 122.315 40.384 122.753 40.6528C123.191 40.9215 123.713 41.0589 124.327 41.0589V41.2589ZM127.199 39.6871C126.54 40.6274 125.635 41.2589 124.327 41.2589V41.0589C125.556 41.0589 126.405 40.4716 127.035 39.5724L127.199 39.6871ZM128.993 40.9697L127.062 39.7136L127.171 39.546L129.102 40.8021L128.993 40.9697ZM124.327 43.2364C126.884 43.2364 128.358 41.7156 128.965 40.8294L129.13 40.9424C128.502 41.8599 126.974 43.4364 124.327 43.4364V43.2364ZM118.81 37.8082C118.81 40.8495 121.165 43.2364 124.327 43.2364V43.4364C121.056 43.4364 118.61 40.9613 118.61 37.8082H118.81ZM124.048 32.3783C121.19 32.3783 118.81 34.5743 118.81 37.8082H118.61C118.61 34.464 121.08 32.1783 124.048 32.1783V32.3783ZM121.075 37.639C121.008 35.4395 122.826 34.3119 124.133 34.3119V34.5119C122.916 34.5119 121.212 35.5684 121.275 37.6329L121.075 37.639ZM126.277 35.6779L121.213 37.7286L121.138 37.5432L126.202 35.4925L126.277 35.6779ZM124.133 34.3119C125.148 34.3119 126.033 34.8079 126.332 35.5476L126.147 35.6227C125.887 34.9812 125.094 34.5119 124.133 34.5119V34.3119ZM115.019 42.9H117.508V43.1H115.019V42.9ZM115.119 26.75V43H114.919V26.75H115.119ZM117.508 26.85H115.019V26.65H117.508V26.85ZM117.408 43V26.75H117.608V43H117.408ZM110.941 33.61H110.858V33.41H110.941V33.61ZM111.041 32.6147V33.51H110.841V32.6147H111.041ZM113.301 32.7147H110.941V32.5147H113.301V32.7147ZM113.201 42.5434V32.6147H113.401V42.5434H113.201ZM107.918 48.2008C109.36 48.2008 110.678 47.7869 111.636 46.8796C112.592 45.9734 113.201 44.5629 113.201 42.5434H113.401C113.401 44.6043 112.778 46.0724 111.773 47.0248C110.769 47.9761 109.396 48.4008 107.918 48.4008V48.2008ZM102.991 44.9921C103.603 46.4311 105.226 48.2008 107.918 48.2008V48.4008C105.125 48.4008 103.442 46.5629 102.807 45.0705L102.991 44.9921ZM105.102 44.2415L102.936 45.1239L102.861 44.9387L105.026 44.0563L105.102 44.2415ZM107.918 46.2233C106.343 46.2233 105.371 45.1122 104.972 44.1886L105.156 44.1093C105.536 44.9893 106.451 46.0233 107.918 46.0233V46.2233ZM111.041 42.8733C111.041 43.948 110.747 44.7882 110.202 45.3601C109.656 45.9326 108.872 46.2233 107.918 46.2233V46.0233C108.831 46.0233 109.558 45.7461 110.057 45.2221C110.557 44.6975 110.841 43.9126 110.841 42.8733H111.041ZM111.041 42.0803V42.8733H110.841V42.0803H111.041ZM110.858 41.9803H110.941V42.1803H110.858V41.9803ZM107.88 43.2364C109.203 43.2364 110.242 42.6587 110.781 42.016L110.934 42.1446C110.355 42.8344 109.26 43.4364 107.88 43.4364V43.2364ZM102.551 37.826C102.551 40.8685 105.098 43.2364 107.88 43.2364V43.4364C104.99 43.4364 102.351 40.9813 102.351 37.826H102.551ZM107.88 32.3783C105.099 32.3783 102.551 34.765 102.551 37.826H102.351C102.351 34.6535 104.989 32.1783 107.88 32.1783V32.3783ZM110.782 33.5754C110.242 32.9514 109.203 32.3783 107.88 32.3783V32.1783C109.26 32.1783 110.354 32.7752 110.933 33.4446L110.782 33.5754ZM108.093 41.2589C106.319 41.2589 104.841 39.8088 104.841 37.826H105.041C105.041 39.7043 106.435 41.0589 108.093 41.0589V41.2589ZM111.217 37.826C111.217 39.8038 109.847 41.2589 108.093 41.2589V41.0589C109.721 41.0589 111.017 39.7093 111.017 37.826H111.217ZM108.093 34.3558C109.848 34.3558 111.217 35.8316 111.217 37.826H111.017C111.017 35.9237 109.72 34.5558 108.093 34.5558V34.3558ZM104.841 37.826C104.841 35.8266 106.318 34.3558 108.093 34.3558V34.5558C106.436 34.5558 105.041 35.9288 105.041 37.826H104.841ZM140.555 26.85H134.6V26.65H140.555V26.85ZM145.918 31.7957C145.918 28.7677 143.266 26.85 140.555 26.85V26.65C143.346 26.65 146.118 28.6291 146.118 31.7957H145.918ZM140.555 36.7429C143.273 36.7429 145.918 34.8253 145.918 31.7957H146.118C146.118 34.9637 143.353 36.9429 140.555 36.9429V36.7429ZM137.083 36.7429L140.555 36.7429V36.9429L137.083 36.9429V36.7429ZM136.983 43V36.8429H137.183V43H136.983ZM134.6 42.9H137.083V43.1H134.6V42.9ZM134.7 26.75V43H134.5V26.75H134.7ZM140.62 34.6825L137.083 34.6825V34.4825L140.62 34.4825V34.6825ZM143.633 31.7957C143.633 33.1006 142.537 34.6825 140.62 34.6825V34.4825C142.411 34.4825 143.433 33.0062 143.433 31.7957H143.633ZM140.62 28.9104C142.536 28.9104 143.633 30.4657 143.633 31.7957H143.433C143.433 30.5614 142.412 29.1104 140.62 29.1104V28.9104ZM137.083 28.9104H140.62V29.1104H137.083V28.9104ZM136.983 34.5825V29.0104H137.183V34.5825H136.983ZM155.97 32.3474C154.199 32.3474 152.38 33.1107 151.635 34.7761L151.452 34.6944C152.241 32.9311 154.153 32.1474 155.97 32.1474V32.3474ZM160.929 36.7405C160.929 35.3278 160.389 34.2331 159.506 33.4901C158.62 32.7453 157.38 32.3474 155.97 32.3474V32.1474C157.416 32.1474 158.705 32.5555 159.634 33.337C160.566 34.1202 161.129 35.2722 161.129 36.7405H160.929ZM160.929 42.974V36.7405H161.129V42.974H160.929ZM158.63 42.874H161.029V43.074H158.63V42.874ZM158.73 41.7179V42.974H158.53V41.7179H158.73ZM158.545 41.6179H158.63V41.8179H158.545V41.6179ZM155.373 43.2104C157.007 43.2104 157.899 42.4945 158.462 41.6619L158.628 41.7739C158.033 42.6541 157.081 43.4104 155.373 43.4104V43.2104ZM151.344 39.7305C151.344 41.8352 153.223 43.2104 155.373 43.2104V43.4104C153.152 43.4104 151.144 41.9809 151.144 39.7305H151.344ZM156.035 36.1743C154.865 36.1743 153.688 36.4892 152.806 37.0922C151.927 37.6936 151.344 38.5791 151.344 39.7305H151.144C151.144 38.5013 151.77 37.5587 152.693 36.9271C153.614 36.2972 154.833 35.9743 156.035 35.9743V36.1743ZM158.581 36.7903C158.144 36.5439 157.199 36.1743 156.035 36.1743V35.9743C157.238 35.9743 158.217 36.3554 158.679 36.6161L158.581 36.7903ZM158.73 36.5325V36.7032H158.53V36.5325H158.73ZM156.015 34.3428C156.678 34.3428 157.348 34.5367 157.857 34.9064C158.369 35.2776 158.72 35.8276 158.73 36.531L158.53 36.534C158.521 35.9033 158.209 35.4085 157.74 35.0683C157.269 34.7267 156.641 34.5428 156.015 34.5428V34.3428ZM153.658 35.5906C154.157 34.6431 155.073 34.3428 156.015 34.3428V34.5428C155.113 34.5428 154.286 34.8275 153.835 35.6837L153.658 35.5906ZM151.581 34.6427L153.785 35.5446L153.709 35.7297L151.505 34.8278L151.581 34.6427ZM155.671 41.2524C155.251 41.2524 154.747 41.1513 154.344 40.9196C153.939 40.6864 153.627 40.3137 153.627 39.776H153.827C153.827 40.2215 154.081 40.537 154.444 40.7462C154.81 40.9568 155.278 41.0524 155.671 41.0524V41.2524ZM158.729 38.5945C158.528 40.1521 157.156 41.2524 155.671 41.2524V41.0524C157.062 41.0524 158.343 40.0207 158.531 38.5688L158.729 38.5945ZM156.36 37.9357C157.475 37.9357 158.003 38.1781 158.673 38.4911L158.588 38.6723C157.929 38.3645 157.432 38.1357 156.36 38.1357V37.9357ZM153.627 39.776C153.627 39.1013 154.009 38.637 154.537 38.3466C155.062 38.0581 155.738 37.9357 156.36 37.9357V38.1357C155.76 38.1357 155.12 38.2546 154.633 38.5218C154.151 38.7872 153.827 39.193 153.827 39.776H153.627ZM169.859 32.6408L167.005 39.6852L166.819 39.6101L169.674 32.5657L169.859 32.6408ZM172.529 32.7033H169.766V32.5033H172.529V32.7033ZM165.606 47.8847L172.438 32.5626L172.621 32.644L165.788 47.9661L165.606 47.8847ZM163.102 47.8254H165.697V48.0254H163.102V47.8254ZM165.723 42.4895L163.193 47.9673L163.012 47.8835L165.541 42.4056L165.723 42.4895ZM161.289 32.5622L165.723 42.4065L165.541 42.4886L161.107 32.6444L161.289 32.5622ZM163.876 32.7033H161.198V32.5033H163.876V32.7033ZM166.735 39.6863L163.784 32.6419L163.968 32.5646L166.919 39.609L166.735 39.6863ZM166.912 39.7477H166.827V39.5477H166.912V39.7477ZM147.382 42.9H149.872V43.1H147.382V42.9ZM147.482 26.75V43H147.282V26.75H147.482ZM149.872 26.85H147.382V26.65H149.872V26.85ZM149.772 43V26.75H149.972V43H149.772ZM68.2365 17.3168C68.2365 18.4242 67.8961 19.3209 67.2181 19.9912L67.0775 19.849C67.7111 19.2225 68.0365 18.3804 68.0365 17.3168H68.2365ZM68.174 16.7046C68.2228 16.9174 68.2365 17.1221 68.2365 17.3168H68.0365C68.0365 17.1313 68.0235 16.9427 67.9791 16.7493L68.174 16.7046ZM64.2085 16.6269H68.0765V16.8269H64.2085V16.6269ZM64.1085 17.6662V16.7269H64.3085V17.6662H64.1085ZM67.1079 17.7662H64.2085V17.5662H67.1079V17.7662ZM66.3688 19.1759C66.7373 18.8146 66.9515 18.3127 67.0083 17.6576L67.2075 17.6748C67.1477 18.3652 66.9193 18.9163 66.5088 19.3187L66.3688 19.1759ZM64.2085 20.0167C65.0751 20.0167 65.7983 19.7329 66.3689 19.1758L66.5087 19.3189C65.8976 19.9154 65.1229 20.2167 64.2085 20.2167V20.0167ZM62.0927 19.1804C62.6923 19.7341 63.3955 20.0167 64.2085 20.0167V20.2167C63.3438 20.2167 62.5925 19.9142 61.957 19.3273L62.0927 19.1804ZM61.2078 16.9999C61.2078 17.8952 61.5048 18.6236 62.0936 19.1812L61.9561 19.3264C61.3233 18.7271 61.0078 17.9441 61.0078 16.9999H61.2078ZM62.0936 14.8252C61.5047 15.383 61.2078 16.1049 61.2078 16.9999H61.0078C61.0078 16.0555 61.3234 15.2792 61.9561 14.68L62.0936 14.8252ZM64.2085 13.9897C63.3951 13.9897 62.6921 14.266 62.0931 14.8256L61.9566 14.6795C62.5926 14.0853 63.3443 13.7897 64.2085 13.7897V13.9897ZM66.325 14.875C65.8126 14.2843 65.1147 13.9897 64.2085 13.9897V13.7897C65.1632 13.7897 65.9199 14.1028 66.4761 14.7439L66.325 14.875ZM67.1664 14.1949L66.4707 14.8807L66.3303 14.7382L67.026 14.0525L67.1664 14.1949ZM65.8864 13.162C66.4172 13.3829 66.854 13.6839 67.1725 14.059L67.02 14.1884C66.7259 13.842 66.3173 13.558 65.8095 13.3466L65.8864 13.162ZM64.2085 12.8244C64.7949 12.8244 65.3537 12.9427 65.886 13.1618L65.8099 13.3468C65.3003 13.137 64.7673 13.0244 64.2085 13.0244V12.8244ZM61.2013 14.0275C62.026 13.2274 63.0331 12.8244 64.2085 12.8244V13.0244C63.0838 13.0244 62.127 13.408 61.3405 14.1711L61.2013 14.0275ZM59.9609 16.9999C59.9609 15.8183 60.3741 14.8268 61.2014 14.0274L61.3404 14.1712C60.5533 14.9318 60.1609 15.8708 60.1609 16.9999H59.9609ZM61.2011 19.9787C60.3741 19.1729 59.9609 18.1816 59.9609 16.9999H60.1609C60.1609 18.129 60.5533 19.0682 61.3407 19.8354L61.2011 19.9787ZM64.2085 21.1754C63.0332 21.1754 62.0262 20.7726 61.2016 19.9791L61.3402 19.835C62.1268 20.5918 63.0837 20.9754 64.2085 20.9754V21.1754ZM67.2192 19.9901C66.4442 20.7802 65.4353 21.1754 64.2085 21.1754V20.9754C65.3884 20.9754 66.3435 20.5972 67.0764 19.85L67.2192 19.9901ZM74.273 14.1604H70.6397V13.9604H74.273V14.1604ZM74.373 13.1033V14.0604H74.173V13.1033H74.373ZM69.6111 13.0033H74.273V13.2033H69.6111V13.0033ZM69.5111 20.8968V13.1033H69.7111V20.8968H69.5111ZM74.273 20.9968L69.6111 20.9968V20.7968L74.273 20.7968V20.9968ZM74.373 19.9396V20.8968H74.173V19.9396H74.373ZM70.6397 19.8396L74.273 19.8396V20.0396L70.6397 20.0396V19.8396ZM70.7397 17.4696V19.9396H70.5397V17.4696H70.7397ZM73.9152 17.5696H70.6397V17.3696H73.9152V17.5696ZM74.0152 16.5304V17.4696H73.8152V16.5304H74.0152ZM70.6397 16.4304H73.9152V16.6304H70.6397V16.4304ZM70.7397 14.0604V16.5304H70.5397V14.0604H70.7397ZM77.575 20.7968H78.6036V20.9968H77.575V20.7968ZM77.675 14.0604V20.8968H77.475V14.0604H77.675ZM75.3464 13.9604H77.575V14.1604H75.3464V13.9604ZM75.4464 13.1033V14.0604H75.2464V13.1033H75.4464ZM80.8339 13.2033H75.3464V13.0033H80.8339V13.2033ZM80.7339 14.0604V13.1033H80.9339V14.0604H80.7339ZM78.6036 13.9604H80.8339V14.1604H78.6036V13.9604ZM78.5036 20.8968V14.0604H78.7036V20.8968H78.5036ZM84.7052 20.8968V13.1033H84.9052V20.8968H84.7052ZM85.8321 20.9968H84.8052V20.7968H85.8321V20.9968ZM85.9321 13.1033V20.8968H85.7321V13.1033H85.9321ZM84.8052 13.0033H85.8321V13.2033H84.8052V13.0033ZM89.3639 20.7968H90.3841V20.9968H89.3639V20.7968ZM89.4639 14.0604V20.8968H89.2639V14.0604H89.4639ZM87.127 13.9604L89.3639 13.9604V14.1604L87.127 14.1604V13.9604ZM87.227 13.1033V14.0604H87.027V13.1033H87.227ZM92.621 13.2033L87.127 13.2033V13.0033L92.621 13.0033V13.2033ZM92.521 14.0604V13.1033H92.721V14.0604H92.521ZM90.3841 13.9604H92.621V14.1604H90.3841V13.9604ZM90.2841 20.8968V14.0604H90.4841V20.8968H90.2841ZM103.081 19.9647C102.274 20.7726 101.273 21.1754 100.084 21.1754V20.9754C101.222 20.9754 102.172 20.5918 102.939 19.8234L103.081 19.9647ZM104.287 16.9999C104.287 18.1679 103.886 19.1588 103.081 19.9647L102.939 19.8234C103.705 19.0563 104.087 18.1168 104.087 16.9999H104.287ZM103.074 14.0416C103.886 14.8538 104.287 15.8381 104.287 16.9999H104.087C104.087 15.89 103.706 14.9568 102.933 14.183L103.074 14.0416ZM100.084 12.8244C101.266 12.8244 102.267 13.2274 103.074 14.0419L102.932 14.1827C102.165 13.408 101.216 13.0244 100.084 13.0244V12.8244ZM97.0807 14.0351C97.8877 13.2272 98.8889 12.8244 100.084 12.8244V13.0244C98.9391 13.0244 97.9897 13.4081 97.2222 14.1765L97.0807 14.0351ZM95.8747 16.9999C95.8747 15.832 96.2757 14.8411 97.0807 14.0351L97.2222 14.1765C96.456 14.9436 96.0747 15.8831 96.0747 16.9999H95.8747ZM97.0807 19.9647C96.2757 19.1588 95.8747 18.1679 95.8747 16.9999H96.0747C96.0747 18.1168 96.456 19.0563 97.2222 19.8234L97.0807 19.9647ZM100.084 21.1754C98.8889 21.1754 97.8877 20.7726 97.0807 19.9647L97.2222 19.8234C97.9897 20.5917 98.9391 20.9754 100.084 20.9754V21.1754ZM97.9822 19.1696C98.5555 19.734 99.2508 20.0167 100.084 20.0167V20.2167C99.1997 20.2167 98.4536 19.9144 97.8419 19.3121L97.9822 19.1696ZM97.1216 16.9999C97.1216 17.8841 97.4122 18.6068 97.9823 19.1697L97.8418 19.312C97.2302 18.7081 96.9216 17.9325 96.9216 16.9999H97.1216ZM97.9823 14.8302C97.4122 15.3931 97.1216 16.1158 97.1216 16.9999H96.9216C96.9216 16.0673 97.2302 15.2918 97.8418 14.6879L97.9823 14.8302ZM100.084 13.9832C99.2508 13.9832 98.5555 14.2659 97.9822 14.8303L97.8419 14.6878C98.4536 14.0855 99.1997 13.7832 100.084 13.7832V13.9832ZM102.179 14.8299C101.613 14.266 100.911 13.9832 100.084 13.9832V13.7832C100.962 13.7832 101.715 14.0854 102.32 14.6882L102.179 14.8299ZM103.04 16.9999C103.04 16.1158 102.749 15.3931 102.179 14.8302L102.32 14.6879C102.931 15.2918 103.24 16.0673 103.24 16.9999L103.04 16.9999ZM102.179 19.1697C102.749 18.6068 103.04 17.8841 103.04 16.9999L103.24 16.9999C103.24 17.9325 102.931 18.7081 102.32 19.312L102.179 19.1697ZM100.084 20.0167C100.911 20.0167 101.613 19.7339 102.179 19.17L102.32 19.3117C101.715 19.9145 100.962 20.2167 100.084 20.2167V20.0167ZM105.73 13.1033V20.8968H105.53V13.1033H105.73ZM106.878 13.2033H105.63V13.0033H106.878V13.2033ZM110.675 19.2184L106.794 13.1572L106.962 13.0493L110.844 19.1106L110.675 19.2184ZM110.804 19.2645H110.759V19.0645H110.804V19.2645ZM110.859 17.6633L110.904 19.1615L110.704 19.1675L110.659 17.6693L110.859 17.6633ZM110.859 13.1033V17.6663H110.659V13.1033H110.859ZM111.786 13.2033H110.759V13.0033H111.786V13.2033ZM111.686 20.8968V13.1033H111.886V20.8968H111.686ZM110.714 20.7968H111.786V20.9968H110.714V20.7968ZM106.734 14.4827L110.799 20.8429L110.63 20.9506L106.566 14.5904L106.734 14.4827ZM106.605 14.4365H106.65V14.6365H106.605V14.4365ZM106.55 16.0443L106.505 14.5395L106.705 14.5335L106.75 16.0383L106.55 16.0443ZM106.55 20.8968V16.0413H106.75V20.8968H106.55ZM105.63 20.7968H106.65V20.9968H105.63V20.7968Z" fill="white"/>
<path d="M18.8943 13.8003C18.5032 14.2001 18.2769 14.8224 18.2769 15.6284L18.2769 44.3779C18.2769 45.1839 18.5032 45.8063 18.8943 46.2061L18.9909 46.2938L35.4915 30.1901V29.8098L18.9909 13.7061L18.8943 13.8003Z" fill="#3A7EF3"/>
<path d="M41.1154 24.5091L21.6638 13.7175C20.5187 13.0903 19.5118 13.1666 18.8943 13.8004L35.4914 30L41.1154 24.5091Z" fill="#00C25E"/>
<path d="M40.9856 35.5608L35.4915 30.1902V29.8099L40.9922 24.4393L41.1154 24.5092L47.6297 28.128C49.4889 29.155 49.4889 30.845 47.6297 31.8785L41.1154 35.4909L40.9856 35.5608Z" fill="#FFA900"/>
<path d="M41.1154 35.4908L35.4914 30L18.8943 46.2061C19.5118 46.8398 20.5187 46.9162 21.6638 46.2825L41.1154 35.4908Z" fill="#FF5252"/>
</svg>
