<svg xmlns="http://www.w3.org/2000/svg" width="1600" height="2258" viewBox="0 0 1600 2258" fill="none"><path d="M10423 3044.82C10423 2101.57 9571.44 1336.53 8521.53 1336.53C8159.02 1336.53 7820.45 1428.7 7533.17 1585.4C7369.02 685.162 6500.36 0 5453.86 0C4680.96 0 4007.24 374.842 3637.89 930.96C3183.04 365.624 2444.34 0 1609.88 0C430.008 0 -561.768 734.321 -828.521 1720.59C-1108.95 1579.25 -1433.85 1499.37 -1775.84 1499.37C-2849.69 1499.37 -3718.35 2279.78 -3718.35 3244.53C-3718.35 3539.49 -3636.27 3816.01 -3492.64 4061.81C-3885.93 4316.83 -4139 4731.61 -4139 5198.63C-4139 5979.03 -3434.5 6608.89 -2569.26 6608.89C-2388 6608.89 -2210.17 6581.24 -2049.43 6529.01C-1871.6 7484.55 -951.639 8212.72 163.254 8212.72C833.557 8212.72 1432.04 7948.49 1842.43 7530.63C2153.64 8182 2871.83 8639.8 3713.13 8639.8C4492.87 8639.8 5166.59 8246.52 5508.58 7668.9C5703.52 7785.65 5939.49 7853.24 6192.57 7853.24C6247.28 7853.24 6302 7850.17 6356.72 7844.03C6329.36 7917.77 6312.26 7997.65 6312.26 8080.61C6312.26 8489.25 6681.61 8818 7133.04 8818C7584.47 8818 7953.82 8486.17 7953.82 8080.61C7953.82 7702.69 7635.77 7389.3 7228.8 7346.29C7355.34 7171.15 7430.57 6962.23 7430.57 6741.01C7430.57 6688.78 7427.15 6636.54 7416.89 6584.31C7601.57 6682.63 7817.03 6741.01 8049.58 6741.01C8733.56 6741.01 9291.01 6243.27 9291.01 5625.7C9291.01 5260.08 9096.07 4937.47 8795.12 4734.68C9715.08 4614.86 10423 3902.04 10423 3044.82Z" fill="#976BFF"></path></svg>