<svg width="298" height="275" viewBox="0 0 298 275" fill="none" xmlns="http://www.w3.org/2000/svg">
<path d="M128.587 274.35C82.6376 274.35 45.3884 265.458 45.3884 254.489C45.3884 243.521 82.6376 234.629 128.587 234.629C174.536 234.629 211.785 243.521 211.785 254.489C211.785 265.458 174.536 274.35 128.587 274.35Z" fill="#151400"/>
<path d="M261.43 60.4509C257.966 81.9763 240.041 96.6615 221.967 95.6987C208.899 95.0025 196.934 86.1893 190.647 73.3456" stroke="#151400" stroke-width="20.8871" stroke-miterlimit="10" stroke-linecap="round"/>
<path d="M246.513 41.1931L249.362 40.812C249.131 40.5241 248.974 40.1847 248.903 39.8227C248.833 39.4608 248.851 39.0871 248.956 38.7338C249.064 38.3667 249.269 38.0359 249.551 37.7769L246.703 38.158C246.421 38.417 246.215 38.7478 246.108 39.1149C246.002 39.4683 245.984 39.8419 246.055 40.2039C246.125 40.5658 246.283 40.9052 246.513 41.1931" fill="white"/>
<path d="M246.513 41.1931L249.362 40.812C249.131 40.5241 248.974 40.1847 248.903 39.8227C248.833 39.4608 248.851 39.0871 248.956 38.7338C249.064 38.3667 249.269 38.0359 249.551 37.7769L246.703 38.158C246.421 38.417 246.215 38.7478 246.108 39.1149C246.002 39.4683 245.984 39.8419 246.055 40.2039C246.125 40.5658 246.283 40.9052 246.513 41.1931" fill="white"/>
<path d="M246.703 38.1579L249.552 37.7779L263.046 25.4514L260.197 25.8325L246.703 38.1579Z" fill="white"/>
<path d="M260.197 25.8326L263.046 25.4515C263.336 25.184 263.701 25.0123 264.092 24.9597L261.244 25.3408C260.853 25.3935 260.487 25.5652 260.197 25.8327" fill="white"/>
<path d="M263.058 26.0794L265.906 25.6983C265.831 25.6053 265.747 25.5188 265.657 25.4399L262.809 25.8211C262.899 25.9 262.982 25.9864 263.058 26.0794Z" fill="white"/>
<path d="M262.808 25.821L265.657 25.4399C265.494 25.2971 265.309 25.1814 265.109 25.0972L262.261 25.4783C262.461 25.5625 262.645 25.6782 262.808 25.8209" fill="white"/>
<path d="M262.261 25.4784L265.11 25.0973C264.86 24.9917 264.59 24.9391 264.319 24.9428L261.471 25.3239C261.742 25.3203 262.011 25.3729 262.261 25.4784" fill="white"/>
<path d="M261.471 25.324L264.319 24.9429C264.243 24.944 264.168 24.9496 264.092 24.9596L261.244 25.3407C261.319 25.3306 261.395 25.325 261.471 25.3239" fill="white"/>
<path d="M270.466 70.6071L273.314 70.226L249.362 40.8123L246.513 41.1934L270.466 70.6071Z" fill="white"/>
<path d="M264.556 23.0353L267.405 22.6541C267.266 22.4829 267.112 22.3238 266.946 22.1785L264.098 22.5596C264.264 22.7048 264.417 22.8639 264.556 23.0351" fill="white"/>
<path d="M264.098 22.5596L266.946 22.1785C266.648 21.9172 266.309 21.7055 265.944 21.5513L263.096 21.9324C263.461 22.0867 263.799 22.2985 264.098 22.5597" fill="white"/>
<path d="M263.096 21.9324L265.944 21.5512C265.488 21.3587 264.997 21.2628 264.502 21.2696L261.653 21.6507C262.148 21.6439 262.639 21.7397 263.095 21.9322" fill="white"/>
<path d="M261.654 21.6511L264.502 21.27C264.364 21.2722 264.226 21.2825 264.089 21.3009L261.241 21.682C261.378 21.6636 261.516 21.6532 261.654 21.6511Z" fill="white"/>
<path d="M272.281 71.3455L275.13 70.9644C275.054 70.9744 274.978 70.98 274.902 70.9811L272.054 71.3623C272.13 71.3611 272.206 71.3555 272.281 71.3455" fill="white"/>
<path d="M272.054 71.3623L274.902 70.9812C274.631 70.9849 274.361 70.9323 274.111 70.8267L271.262 71.2078C271.513 71.3134 271.782 71.366 272.054 71.3623" fill="white"/>
<path d="M271.262 71.2076L274.111 70.8265C273.911 70.7423 273.726 70.6266 273.563 70.4839L270.715 70.865C270.878 71.0078 271.063 71.1235 271.262 71.2077" fill="white"/>
<path d="M270.715 70.865L273.563 70.4839C273.473 70.405 273.39 70.3186 273.314 70.2256L270.465 70.6067C270.541 70.6997 270.625 70.786 270.715 70.8649" fill="white"/>
<path d="M272.281 71.3454L275.13 70.9643C275.521 70.9116 275.886 70.7403 276.177 70.4734L273.329 70.8545C273.038 71.1214 272.672 71.2927 272.281 71.3454" fill="white"/>
<path d="M273.645 76.6745L276.493 76.2934C277.207 76.1971 277.874 75.8839 278.404 75.396L275.556 75.7771C275.026 76.265 274.359 76.5783 273.645 76.6746" fill="white"/>
<path d="M273.328 70.8545L276.177 70.4734L289.672 58.1479L286.824 58.5291L273.328 70.8545Z" fill="white"/>
<path d="M287.01 55.4925L289.858 55.1124L265.907 25.6987L263.058 26.0798L287.01 55.4925Z" fill="white"/>
<path d="M246.108 39.115C246.003 39.4683 245.984 39.842 246.055 40.204C246.126 40.5659 246.283 40.9053 246.513 41.1932L270.465 70.6067C270.631 70.8192 270.839 70.9952 271.077 71.1238C271.314 71.2523 271.575 71.3306 271.843 71.3538C272.112 71.377 272.383 71.3446 272.638 71.2586C272.894 71.1726 273.129 71.0348 273.329 70.8539L286.823 58.5288C287.104 58.2694 287.309 57.9387 287.417 57.5719C287.522 57.2183 287.54 56.8443 287.47 56.4822C287.399 56.12 287.241 55.7805 287.01 55.4927L263.058 26.0792C262.892 25.8667 262.684 25.6907 262.448 25.5621C262.211 25.4335 261.95 25.3552 261.682 25.332C261.413 25.3088 261.143 25.3412 260.887 25.4273C260.632 25.5133 260.397 25.6511 260.197 25.832L246.703 38.1581C246.421 38.4171 246.216 38.7479 246.108 39.115V39.115Z" fill="white"/>
<path d="M286.823 58.529L289.672 58.1478C289.952 57.8885 290.158 57.5577 290.265 57.1909C290.371 56.8374 290.389 56.4634 290.318 56.1012C290.247 55.7391 290.09 55.3995 289.858 55.1118L287.01 55.4929C287.241 55.7807 287.399 56.1202 287.47 56.4824C287.541 56.8445 287.522 57.2185 287.417 57.5721C287.309 57.9389 287.104 58.2696 286.823 58.529" fill="white"/>
<path d="M275.556 75.7769L278.404 75.3969L293.941 61.2061L291.093 61.5872L275.556 75.7769Z" fill="white"/>
<path d="M291.435 56.0424L294.284 55.6612L267.405 22.6548L264.556 23.0349L291.435 56.0424Z" fill="white"/>
<path d="M291.093 61.5871L293.942 61.206C294.455 60.7335 294.83 60.1299 295.027 59.4601C295.22 58.8141 295.253 58.1309 295.123 57.4693C294.994 56.8077 294.706 56.1873 294.284 55.6616L291.435 56.0427C291.858 56.5684 292.146 57.1887 292.275 57.8504C292.404 58.512 292.371 59.1951 292.178 59.8411C291.982 60.5109 291.607 61.1146 291.093 61.5871" fill="white"/>
<path d="M270.331 75.3211C270.633 75.7099 271.012 76.0322 271.444 76.2677C271.877 76.5032 272.353 76.6468 272.844 76.6896C273.334 76.7324 273.828 76.6734 274.295 76.5164C274.762 76.3594 275.191 76.1076 275.556 75.777L291.093 61.587C291.607 61.1144 291.982 60.5106 292.179 59.8407C292.371 59.1947 292.405 58.5116 292.275 57.8499C292.146 57.1883 291.858 56.568 291.436 56.0423L264.556 23.0351C264.254 22.6459 263.875 22.3233 263.442 22.0877C263.009 21.852 262.532 21.7084 262.041 21.6658C261.55 21.6231 261.055 21.6824 260.588 21.8399C260.121 21.9974 259.692 22.2497 259.327 22.581L243.792 36.7682C243.278 37.2413 242.902 37.8454 242.706 38.5157C242.513 39.1615 242.48 39.8445 242.609 40.5059C242.739 41.1673 243.027 41.7874 243.449 42.3128L270.331 75.3211ZM273.329 70.8543C273.129 71.0352 272.893 71.173 272.638 71.259C272.382 71.345 272.112 71.3774 271.843 71.3542C271.574 71.331 271.313 71.2527 271.076 71.1241C270.839 70.9956 270.631 70.8196 270.465 70.6071L246.513 41.1931C246.283 40.9053 246.125 40.5658 246.055 40.2039C245.984 39.8419 246.002 39.4683 246.108 39.1149C246.215 38.7478 246.421 38.417 246.703 38.158L260.198 25.8324C260.397 25.6514 260.632 25.5136 260.887 25.4276C261.143 25.3416 261.413 25.3091 261.682 25.3323C261.95 25.3555 262.211 25.4339 262.448 25.5624C262.685 25.691 262.892 25.8671 263.058 26.0796L287.01 55.4927C287.241 55.7804 287.399 56.1199 287.47 56.4821C287.54 56.8443 287.522 57.2182 287.417 57.5718C287.309 57.9386 287.104 58.2693 286.823 58.5287L273.329 70.8543Z" fill="white"/>
<path d="M255.286 56.1923C259.56 56.8321 263.504 52.6829 263.729 48.3664C263.954 44.0499 261.302 40.0107 257.912 37.3293C255.434 35.3681 252.024 33.9376 249.153 35.2597C248.166 35.7421 247.308 36.4532 246.651 37.334C244.231 40.4344 243.947 44.7264 244.583 48.6075C245.563 54.5882 248.446 60.109 251.913 65.0789C252.242 65.4691 252.461 65.9394 252.548 66.4419C252.569 66.9339 252.434 67.4199 252.163 67.8312C251.557 68.8544 250.548 70.9691 249.194 73.9224L259.668 78.8769C262.784 77.1258 265.9 75.3744 269.016 73.6226C264.439 67.8123 259.863 62.0022 255.286 56.1923Z" fill="#151400"/>
<path d="M267.617 21.1417C269.548 17.6039 273.607 15.0323 277.57 15.7662C281.533 16.5001 284.51 21.2452 282.705 24.8489C284.187 23.9859 285.935 23.697 287.616 24.0368C289.297 24.3767 290.795 25.3217 291.825 26.6926C292.761 28.13 293.137 29.8607 292.881 31.5567C292.626 33.2527 291.757 34.7959 290.439 35.8936C291.721 35.7203 293.025 35.9665 294.155 36.5955C295.285 37.2245 296.182 38.2025 296.71 39.3832C297.205 40.5777 297.45 41.8603 297.433 43.1528C297.415 44.4454 297.134 45.7207 296.607 46.9012C295.54 49.2545 294.108 51.4242 292.363 53.33C291.223 51.92 289.956 51.0922 288.816 49.6821C286.642 52.3541 286.248 56.7656 283.009 57.9394C280.792 58.7428 278.186 57.3329 277.159 55.2098C276.705 54.1182 276.494 52.9405 276.543 51.7592C276.591 50.5778 276.897 49.4213 277.438 48.3704C278.536 46.2785 279.944 44.3646 281.614 42.6935C280.786 44.0774 279.743 45.3203 278.524 46.3753C277.909 46.8978 277.179 47.2677 276.393 47.4549C275.608 47.642 274.79 47.6411 274.005 47.4522C273.103 47.0993 272.325 46.4875 271.77 45.6937C271.214 44.8999 270.906 43.9596 270.884 42.9911C270.876 41.0481 271.418 39.1424 272.446 37.4936C271.626 40.7036 267.419 42.8253 264.712 40.9155C262.449 39.3189 262.231 36.0467 262.676 33.3126C263.311 29.4085 265.721 24.6135 267.617 21.1417Z" fill="#151400"/>
<path d="M82.7149 120.637C84.0248 124.499 83.6141 127.615 82.7923 133.849C82.0699 139.328 81.5047 143.2 78.5953 144.761C78.4088 144.861 76.2868 145.963 74.5662 145.097C72.144 143.877 71.2666 139.135 73.2233 133.345C73.5009 136.145 73.7049 142.398 69.8494 146.924C68.9018 148.038 66.9119 150.373 64.6606 149.994C64.0516 149.832 63.4838 149.543 62.9946 149.146C62.5055 148.749 62.1062 148.252 61.8229 147.69C60.5205 145.356 61.1637 142.055 63.3183 139.221C63.308 143.02 61.4834 146.332 58.6178 147.615C58.0372 147.875 55.7225 149.025 53.5814 147.951C51.3947 146.854 50.9322 144.226 50.8074 143.518C50.5857 142.044 50.7594 140.537 51.311 139.153C52.6946 135.477 54.873 132.152 57.6905 129.416C56.3298 133.516 53.8147 135.874 52.0398 135.522C50.3038 135.178 49.3554 132.253 49.2164 130.156C49.1172 128.66 49.388 126.472 53.4794 120.971C57.1979 115.971 59.0571 113.471 61.8075 112.025C62.7771 111.515 69.3799 108.042 75.6062 111.224C80.3424 113.643 81.968 118.435 82.7149 120.637Z" fill="#151400"/>
<path d="M75.3309 60.6907C61.2238 62.7163 34.2673 67.4772 17.7107 77.4265C14.6049 79.2927 10.9755 81.8762 11 85.1093C11.0397 90.3755 20.7492 94.3317 30.1571 97.7757C46.8169 103.834 63.8263 108.883 81.0932 112.897" stroke="#151400" stroke-width="20.8871" stroke-miterlimit="10" stroke-linecap="round"/>
<path d="M115.91 122.987C123.775 143.527 128.416 165.159 129.671 187.117" stroke="#151400" stroke-width="20.8871" stroke-miterlimit="10" stroke-linecap="round"/>
<path d="M122.678 178.908C119.584 182.121 120.906 186.863 121.858 198.316C122.127 201.558 122.4 205.747 122.526 210.674L141.552 206.19C141.819 203.716 142.143 200.149 142.31 195.839C142.702 185.73 142.843 180.624 140.187 178.134C136.147 174.347 128.717 176.166 127.971 176.359C126.067 176.851 124.192 177.335 122.678 178.908Z" fill="white" stroke="#151400" stroke-width="4.9731" stroke-miterlimit="10"/>
<path d="M118.919 242.649C121.157 245.487 124.333 247.433 127.878 248.138C132.79 249.372 137.734 249.289 142.738 249.184C148.518 249.063 154.244 249.359 160.015 248.753C162.76 248.464 163.611 248.337 164.552 247.718C169.023 244.779 169.096 235.94 166.779 229.598C166.588 229.047 166.35 228.514 166.067 228.004C165.275 226.607 164.285 225.332 163.128 224.218C156.611 218.25 151.828 210.633 149.284 202.171C148.486 198.822 148.863 197.688 147.51 196.194C144.149 192.486 135.174 192.134 130.975 197.2C129.174 199.592 128.377 202.593 128.753 205.564C125.286 199.151 123.16 198.093 121.858 198.316C120.815 198.495 119.337 199.661 116.866 228.303C116.348 234.308 116.077 238.779 118.919 242.649Z" fill="white" stroke="#151400" stroke-width="4.9731" stroke-linejoin="round"/>
<path d="M138.617 218.21C140.966 215.134 144.423 213.098 148.251 212.536C150.327 212.29 152.431 212.482 154.429 213.099C156.426 213.715 158.272 214.743 159.849 216.115C159.409 213.868 158.252 211.824 156.55 210.291C154.848 208.758 152.695 207.819 150.413 207.616C143.979 206.655 138.628 210.346 137.029 211.542L138.617 218.21Z" fill="#151400" stroke="#151400" stroke-width="4.7853" stroke-linejoin="round"/>
<path d="M117.937 216.943C117.611 219.295 117.462 221.684 117.333 224.053C117.112 228.101 116.114 231.899 119.78 234.771C123.667 237.816 129.14 238.415 133.858 239.077C140.926 239.896 148.05 240.115 155.155 239.73C158.704 239.616 164.654 239.7 166.652 236.014C167.312 234.799 168.089 232.275 165.979 227.452" stroke="#151400" stroke-width="4.7853" stroke-linejoin="round"/>
<path d="M156.079 132.422C156.754 141.294 157.071 162.85 142.691 179.446C140.589 181.868 138.264 184.087 135.746 186.073" stroke="#151400" stroke-width="20.8871" stroke-miterlimit="10" stroke-linecap="round"/>
<path d="M120.106 183.095C125.616 180.013 128.391 178.477 129.412 178.745C130.82 179.115 130.994 180.014 135.646 188.388C138.112 192.827 139.045 194.342 138.39 195.897C137.953 196.936 137.172 197.125 133.49 198.813C130.109 200.363 126.607 202.286 122.897 204.105C121.879 204.604 120.407 205.816 119.318 206.033C114.438 207.002 110.501 196.604 109.024 192.669C107.982 189.69 109.763 189.426 111.928 188.115C113.543 187.138 111.305 188.017 120.106 183.095Z" fill="white" stroke="#151400" stroke-width="2.9839" stroke-miterlimit="10"/>
<path d="M120.106 183.095C125.616 180.013 128.391 178.477 129.412 178.745C130.82 179.115 130.994 180.014 135.646 188.388C138.112 192.827 139.045 194.342 138.39 195.897C137.953 196.936 137.172 197.125 133.49 198.813C130.109 200.363 126.607 202.286 122.897 204.105C121.879 204.604 120.407 205.816 119.318 206.033C114.438 207.002 110.501 196.604 109.024 192.669C107.982 189.69 109.763 189.426 111.928 188.115C113.543 187.138 111.305 188.017 120.106 183.095Z" fill="white" stroke="#151400" stroke-width="4.9731" stroke-miterlimit="10"/>
<path d="M93.5646 213.816C95.7847 221.853 98.5846 229.718 101.942 237.349C103.538 240.78 105.141 244.231 108.378 246.426C111.528 248.562 114.766 248.598 118.396 248.81C124.543 249.169 132.676 250.318 137.952 246.284C139.11 245.398 142.461 242.836 143.069 238.816C143.896 233.348 139.395 227.224 138.015 225.522C135.731 222.75 134.089 219.508 133.204 216.027C131.093 207.738 132.961 202.296 129.426 200.581C126.85 199.331 124.016 201.264 119.971 198.979C118.589 198.279 117.437 197.196 116.655 195.858C114.239 191.358 119.028 186.929 117.078 183.259C115.779 180.816 112.337 180.343 109.039 179.896C107.433 179.679 95.3065 178.036 90.0032 184.224C88.1443 186.393 86.5258 190.221 93.5646 213.816Z" fill="white" stroke="#151400" stroke-width="4.9731" stroke-miterlimit="10"/>
<path d="M101 179.651C104.896 185.182 107.632 191.445 109.045 198.061C111.227 208.678 108.492 222.697 116.254 231.466C122.474 238.494 134.233 236.247 142.198 234.365" stroke="#151400" stroke-width="4.9731" stroke-miterlimit="10"/>
<path d="M95.9841 192.771C95.7117 191.577 96.4589 190.388 97.653 190.116C98.8471 189.844 100.036 190.591 100.308 191.785L101.637 197.612C101.91 198.807 101.163 199.995 99.9685 200.268C98.7744 200.54 97.5856 199.793 97.3132 198.599L95.9841 192.771Z" fill="#151400"/>
<path d="M130.176 211.393C127.097 210.891 123.485 210.545 121.599 211.228L122.849 216.705C122.849 216.705 133.608 216.398 135.228 218.5C135.734 219.157 135.957 218.817 136.024 218.038C136.306 214.774 133.779 211.979 130.176 211.393Z" fill="#151400" stroke="#151400" stroke-width="4.4758" stroke-linejoin="round"/>
<path d="M143.73 139.965C171.207 136.666 185.724 124.062 193.066 114.068C199.677 104.927 203.573 94.1054 204.306 82.848L204.318 82.654L204.327 82.4061C204.904 66.0976 201.001 49.0609 193.889 36.8329C188.2 26.815 165.568 -5.44203 113.624 0.79339C93.4917 3.21027 77.1519 11.3994 66.3715 24.4751C55.5836 37.5585 51.0876 54.5164 53.3684 73.5158C58.7543 118.381 95.9126 145.705 143.73 139.965Z" fill="#151400"/>
<path d="M190.976 83.4505C190.367 93.3936 184.588 122.867 142.341 127.938C102.824 132.682 71.5388 111.357 66.8703 72.4737C63.1416 41.4091 80.7808 18.7122 114.804 14.6277C158.551 9.37596 177.489 35.8284 182.233 44.303C187.437 53.3068 191.494 67.9379 190.976 83.4505Z" fill="white"/>
<path d="M143.73 139.965C171.207 136.666 185.724 124.062 193.066 114.068C199.677 104.927 203.573 94.1054 204.306 82.848L204.318 82.654L204.327 82.4061C204.904 66.0976 201.001 49.0609 193.889 36.8329C188.2 26.815 165.568 -5.44203 113.624 0.79339C93.4917 3.21027 77.1519 11.3994 66.3715 24.4751C55.5836 37.5585 51.0876 54.5164 53.3684 73.5158C58.7543 118.381 95.9126 145.705 143.73 139.965Z" fill="#151400"/>
<path d="M190.976 83.4505C190.367 93.3936 184.588 122.867 142.341 127.938C102.824 132.682 71.5388 111.357 66.8703 72.4737C63.1416 41.4091 80.7808 18.7122 114.804 14.6277C158.551 9.37596 177.489 35.8284 182.233 44.303C187.437 53.3068 191.494 67.9379 190.976 83.4505Z" fill="white"/>
<path d="M140.353 86.0079C159.32 89.2288 170.853 75.8454 175.694 65.9725C176.763 63.7926 175.393 61.3169 173.031 60.7555L119.448 48.0185C116.933 47.4206 114.5 49.2629 114.675 51.8423C115.511 64.1803 121.32 82.7759 140.353 86.0079Z" fill="#151400"/>
<path d="M122.429 64.2499C122.344 64.2601 122.263 64.2882 122.19 64.3323C122.116 64.3764 122.053 64.4356 122.005 64.5058C121.956 64.5761 121.923 64.6559 121.908 64.7399C121.892 64.8239 121.895 64.9102 121.915 64.9932C123.305 69.8372 126.426 74.0017 130.685 76.6952C134.758 79.6947 139.793 81.088 144.828 80.6087C144.913 80.5974 144.994 80.5683 145.067 80.5232C145.139 80.4781 145.202 80.4182 145.249 80.3472C145.297 80.2763 145.329 80.1961 145.343 80.1119C145.358 80.0277 145.354 79.9413 145.332 79.8587C143.909 75.0094 140.849 70.8036 136.673 67.9575C132.497 65.1114 127.463 63.8011 122.429 64.2499V64.2499Z" fill="#FFE500"/>
</svg>
