<?xml version="1.0" encoding="UTF-8"?>
<svg width="123px" height="149px" viewBox="0 0 123 149" version="1.1" xmlns="http://www.w3.org/2000/svg" xmlns:xlink="http://www.w3.org/1999/xlink">
    <title>Sticker_Hand_Rock-41</title>
    <g id="Page-1" stroke="none" stroke-width="1" fill="none" fill-rule="evenodd">
        <g id="Sticker_Hand_Rock-41" transform="translate(-0.000000, 0.000000)" fill-rule="nonzero">
            <path d="M51.842541,142.704731 L51.332541,142.704731 C48.8317573,142.535524 46.5601433,141.188145 45.212541,139.074731 C43.432541,138.604731 41.542541,138.074731 39.502541,137.404731 L38.422541,137.064731 C36.9617872,138.202343 35.1640138,138.821537 33.312541,138.824731 L32.882541,138.824731 C30.722541,138.694731 26.882541,137.624731 25.252541,131.824731 L25.252541,131.714731 C22.4885903,130.188588 20.03874,128.152702 18.032541,125.714731 L17.612541,125.714731 L16.182541,125.714731 C10.602541,125.714731 7.26254097,123.804731 6.25254097,120.044731 C5.64254097,117.724731 5.82254097,114.314731 10.252541,111.204731 L10.482541,111.044731 C11.7668619,110.083407 13.1021377,109.192111 14.482541,108.374731 C14.986361,106.035164 16.0968664,103.869334 17.702541,102.094731 C12.762541,91.5847309 12.762541,79.0747309 13.522541,67.8847309 C14.4395495,56.3289954 16.6157832,44.90796 20.012541,33.8247309 L20.422541,32.4347309 C21.7129132,27.4155793 23.5018076,22.5379946 25.762541,17.8747309 C27.642541,14.2847309 30.242541,10.2647309 35.232541,7.69473094 C37.511346,6.55837164 40.0261886,5.9759149 42.572541,5.99473094 C47.5036795,5.85478846 52.2033987,8.08566783 55.212541,11.9947309 C59.812541,18.3947309 58.212541,25.4847309 56.662541,30.9047309 C59.3018663,30.8677613 61.8899145,31.6351071 64.082541,33.1047309 C64.8062669,33.6006254 65.4765296,34.1703487 66.082541,34.8047309 C68.5021997,33.6734943 71.1415077,33.0896371 73.812541,33.0947309 C75.1040829,33.09325 76.391855,33.2341001 77.652541,33.5147309 C79.452541,27.5147309 81.752541,20.6347309 85.652541,15.3947309 C89.1306825,10.6573433 94.5979718,7.78720091 100.472541,7.61473094 C104.739997,7.58338611 108.828874,9.3254144 111.762541,12.4247309 C112.234465,12.9203708 112.675305,13.4447036 113.082541,13.9947309 C119.342541,22.4547309 115.662541,35.7747309 114.382541,39.6547309 C113.102541,43.5347309 111.752541,47.8847309 110.162541,53.2147309 C108.572541,58.5447309 107.462541,64.2147309 106.272541,70.1047309 C104.022541,81.2947309 101.712541,92.8647309 95.992541,103.324731 C94.1743865,106.670833 92.0449744,109.838166 89.632541,112.784731 C89.782541,113.044731 89.922541,113.314731 90.052541,113.584731 C90.5416998,114.59865 90.9334587,115.656733 91.222541,116.744731 C92.2415927,117.834384 93.1997169,118.979459 94.092541,120.174731 C96.952541,123.974731 95.842541,127.174731 95.242541,128.424731 C94.242541,130.364731 92.042541,132.674731 86.902541,132.674731 L86.902541,132.674731 L86.022541,132.674731 C83.7165523,134.696126 81.1211694,136.361216 78.322541,137.614731 C77.037278,140.417347 74.2457311,142.222495 71.162541,142.244731 C70.912541,142.244731 70.652541,142.244731 70.392541,142.244731 C69.1387214,142.129966 67.9278028,141.729747 66.852541,141.074731 C64.9707282,141.338078 63.0726877,141.468401 61.172541,141.464731 C59.692541,141.464731 58.172541,141.384731 56.582541,141.234731 C55.2021041,142.222458 53.5396272,142.738036 51.842541,142.704731 L51.842541,142.704731 Z" id="Path" fill="#151400"></path>
            <path d="M42.602541,11.9947309 C45.602541,11.9947309 48.712541,13.1847309 50.352541,15.4647309 C54.462541,21.1847309 50.792541,28.3747309 49.582541,34.3447309 C49.1095993,36.3748898 48.4673519,38.3618429 47.662541,40.2847309 L47.892541,40.0647309 C50.3298111,38.0497053 53.3805599,36.9246315 56.542541,36.8747309 C58.0086228,36.8204049 59.4563911,37.2146165 60.692541,38.0047309 C63.342541,39.8447309 63.582541,42.4447309 63.482541,45.1447309 C66.1610014,40.3351702 71.8010223,38.006227 77.092541,39.5247309 C78.2670016,39.8455234 79.3495038,40.4381592 80.252541,41.2547309 C80.6694824,41.639188 81.0387885,42.0722833 81.352541,42.5447309 C81.822541,40.8747309 82.172541,39.4747309 82.352541,38.7247309 C84.242541,32.3147309 86.412541,24.3747309 90.472541,18.9647309 C92.805038,15.7334227 96.4907803,13.7504934 100.472541,13.5847309 C103.076084,13.5772868 105.562482,14.6662199 107.322541,16.5847309 C107.62157,16.8988517 107.898877,17.2329568 108.152541,17.5847309 C112.002541,22.7847309 110.452541,32.1247309 108.582541,37.8047309 C107.072541,42.3647309 105.672541,46.9547309 104.312541,51.5447309 C99.592541,67.4647309 98.772541,85.5447309 90.632541,100.474731 C88.2068101,105.045223 85.0863284,109.211488 81.382541,112.824731 C82.7639262,113.615994 83.8833312,114.794498 84.602541,116.214731 C85.1269618,117.328686 85.4647947,118.521236 85.602541,119.744731 C86.924707,120.988232 88.1297762,122.350629 89.202541,123.814731 C90.962541,126.154731 88.992541,126.714731 86.812541,126.714731 C85.7395535,126.700739 84.6694323,126.600415 83.612541,126.414731 C81.272541,129.414731 77.302541,131.674731 73.472541,133.134731 C73.132541,134.754731 72.472541,136.254731 71.072541,136.254731 L70.872541,136.254731 C69.9100201,136.117318 69.0861745,135.493765 68.692541,134.604731 L68.372541,134.684731 C65.9785057,135.210274 63.5335428,135.468521 61.082541,135.454731 C58.825971,135.442301 56.5733184,135.265164 54.342541,134.924731 C53.692541,135.834731 52.912541,136.754731 51.792541,136.754731 L51.652541,136.754731 C50.542541,136.684731 49.742541,135.364731 49.172541,133.924731 C46.482541,133.294731 43.832541,132.534731 41.262541,131.714731 C39.752541,131.234731 38.172541,130.714731 36.602541,130.204731 C35.602541,131.554731 34.512541,132.914731 33.262541,132.914731 L33.162541,132.914731 C31.802541,132.834731 31.292541,131.414731 30.972541,130.274731 C30.7563763,129.459931 30.5960045,128.631344 30.492541,127.794731 C26.492541,125.934731 23.102541,123.484731 21.242541,119.904731 L20.962541,119.904731 C20.3445339,119.904351 19.7269881,119.87097 19.112541,119.804731 L18.422541,119.804731 C17.792541,119.804731 16.982541,119.804731 16.152541,119.804731 C14.292541,119.804731 12.302541,119.644731 12.022541,118.584731 C11.702541,117.364731 13.282541,116.514731 14.072541,115.904731 C15.403306,114.9191 16.7852334,114.004491 18.212541,113.164731 C18.772541,112.824731 19.322541,112.404731 19.892541,112.064731 C19.8975036,112.004834 19.8975036,111.944628 19.892541,111.884731 C20.352541,107.074731 22.572541,104.944731 25.712541,104.294731 C18.802541,94.4247309 18.622541,81.0347309 19.492541,68.2947309 C20.3913067,57.1735195 22.4935993,46.1825865 25.762541,35.5147309 C27.232541,30.5147309 28.642541,25.3247309 31.082541,20.6547309 C32.672541,17.6547309 34.552541,14.8047309 37.992541,13.0347309 C39.4259529,12.3444495 41.0019194,12.0018481 42.592541,12.0347309 M42.592541,0.0347309399 L42.592541,0.0347309399 C39.0891061,0.0156410164 35.6311107,0.827875812 32.502541,2.40473094 C25.982541,5.75473094 22.642541,10.9647309 20.502541,15.1247309 C18.0344932,20.1247722 16.0778923,25.3613598 14.662541,30.7547309 L14.262541,32.1247309 C10.7368609,43.6239824 8.48009617,55.4745122 7.53254097,67.4647309 C6.78254097,78.3647309 6.73254097,90.4647309 10.802541,101.394731 C10.232067,102.396884 9.7438001,103.443647 9.34254097,104.524731 C8.54254097,105.054731 7.69254097,105.634731 6.85254097,106.284731 L6.74254097,106.354731 C-1.14745903,111.934731 -0.257459026,118.904731 0.432540974,121.644731 C1.80829943,126.553756 5.83033409,130.27027 10.832541,131.254731 C12.3151404,131.57322 13.8261833,131.740742 15.342541,131.754731 C16.8374829,133.249143 18.4790957,134.589235 20.242541,135.754731 C22.1980869,140.936902 27.0139133,144.488084 32.542541,144.824731 L33.312541,144.824731 C35.3379556,144.829899 37.3393196,144.385911 39.172541,143.524731 L41.822541,144.314731 C44.2153381,146.85024 47.4746708,148.392443 50.952541,148.634766 L51.842541,148.634766 C53.9624553,148.639483 56.055531,148.160675 57.962541,147.234731 C59.042541,147.294731 60.102541,147.334731 61.132541,147.334731 C62.692541,147.334731 64.232541,147.254731 65.752541,147.114731 C67.0315186,147.636638 68.378428,147.973365 69.752541,148.114731 C70.1992076,148.154731 70.6492076,148.174731 71.102541,148.174731 C75.6417526,148.149608 79.8827313,145.909655 82.462541,142.174731 C84.463313,141.155476 86.3677456,139.957256 88.152541,138.594731 C95.852541,138.144731 99.212541,133.744731 100.542541,131.064731 C102.852541,126.464731 102.202541,121.064731 98.822541,116.524731 C98.052541,115.524731 97.282541,114.524731 96.512541,113.664731 L96.512541,113.664731 C98.2418803,111.28231 99.8151704,108.790432 101.222541,106.204731 C107.372541,94.9447309 109.782541,82.9247309 112.112541,71.2947309 C113.272541,65.4947309 114.372541,60.0247309 115.882541,54.9347309 C117.442541,49.6547309 118.762541,45.4047309 120.042541,41.5447309 C121.972541,35.6847309 125.622541,20.9147309 117.862541,10.4247309 C117.302792,9.67564749 116.698361,8.96101599 116.052541,8.28473094 C112.020322,4.01391919 106.406093,1.59386814 100.532541,1.59473094 C92.761071,1.73565188 85.5024038,5.50187166 80.912541,11.7747309 C77.6185879,16.4456771 75.0870795,21.6099541 73.412541,27.0747309 C71.3360447,27.1138095 69.2728997,27.4162249 67.272541,27.9747309 C66.204086,27.2704176 65.0644766,26.6805022 63.872541,26.2147309 C64.682541,20.8747309 64.432541,14.5047309 60.102541,8.47473094 C55.96345,3.01030889 49.4560986,-0.139249174 42.602541,0.00473093989 L42.592541,0.0347309399 Z" id="Shape" fill="#151400"></path>
            <path d="M84.602541,116.174731 C89.682541,126.784731 76.282541,132.884731 68.422541,134.634731 C59.422541,136.634731 49.912541,134.394731 41.312541,131.634731 C31.312541,128.474731 18.692541,124.694731 19.902541,111.814731 C20.742541,102.994731 27.502541,103.174731 34.992541,104.994731 C39.7050679,106.235576 44.4867124,107.197247 49.312541,107.874731 C57.232541,108.874731 65.172541,109.314731 73.102541,110.304731 C77.622541,110.904731 82.762541,112.264731 84.602541,116.174731 Z" id="Path" stroke="#151400" stroke-width="2" fill="#00C25E" stroke-linecap="round" stroke-linejoin="round"></path>
            <path d="M108.212541,17.5547309 C107.958877,17.2029568 107.68157,16.8688517 107.382541,16.5547309 C102.332541,11.2747309 94.542541,13.5547309 90.512541,18.9447309 C86.482541,24.3347309 84.282541,32.2947309 82.392541,38.7047309 C81.602541,41.3847309 80.972541,44.0947309 80.002541,46.7047309 C79.4372712,48.57377 78.5506809,50.330031 77.382541,51.8947309 C76.7703959,52.4738871 76.2268305,53.1214681 75.762541,53.8247309 C75.2580882,54.7238925 74.6758643,55.5771517 74.022541,56.3747309 C70.8667461,60.2308981 66.0650699,62.3563013 61.0888044,62.099691 C56.112539,61.8430807 51.554951,59.2350499 48.812541,55.0747309 C47.1356703,52.4945151 46.2461514,49.4819648 46.252541,46.4047309 C46.252541,41.9547309 48.702541,38.5547309 49.562541,34.3047309 C50.772541,28.3047309 54.442541,21.1447309 50.332541,15.4247309 C47.812541,11.9147309 41.872541,10.9947309 37.982541,12.9947309 C34.542541,14.7647309 32.662541,17.5947309 31.072541,20.6147309 C28.652541,25.3247309 27.242541,30.5147309 25.762541,35.5147309 C22.4935993,46.1825865 20.3913067,57.1735195 19.492541,68.2947309 C18.212541,86.9047309 19.192541,106.994731 40.272541,115.294731 C49.352541,118.874731 61.732541,120.794731 71.482541,118.484731 C80.062541,116.484731 86.942541,107.274731 90.682541,100.424731 C98.822541,85.5047309 99.682541,67.4247309 104.362541,51.4947309 C105.722541,46.9047309 107.122541,42.3147309 108.632541,37.7547309 C110.512541,32.0947309 112.062541,22.7547309 108.212541,17.5547309 Z" id="Path" stroke="#151400" stroke-width="2" fill="#FFE501" stroke-linecap="round" stroke-linejoin="round"></path>
            <path d="M80.252541,41.2547309 C83.532541,44.2547309 83.322541,49.8047309 82.612541,54.2547309 C81.612541,60.6347309 79.322541,66.7147309 77.612541,72.9247309 C76.142541,78.3247309 73.892541,87.6647309 66.282541,88.5747309 C55.082541,89.9247309 56.642541,76.3947309 57.472541,70.4247309 C58.1912391,66.1068455 59.1934059,61.8409554 60.472541,57.6547309 C61.472541,53.9947309 61.822541,49.9047309 62.982541,46.4147309 C64.862541,40.7147309 71.532541,37.8947309 77.112541,39.5347309 C78.2789668,39.8554764 79.3542494,40.4444847 80.252541,41.2547309 L80.252541,41.2547309 Z" id="Path" stroke="#151400" stroke-width="2" fill="#FFE501" stroke-linecap="round" stroke-linejoin="round"></path>
            <path d="M47.892541,40.0647309 C43.532541,44.0647309 42.252541,48.8947309 40.442541,54.4247309 C38.9159123,59.0341841 37.7982601,63.7691479 37.102541,68.5747309 C36.6739906,70.8438156 36.396713,73.1388727 36.272541,75.4447309 C36.142541,80.9447309 38.362541,86.3847309 44.952541,86.3047309 C52.632541,86.2047309 56.482541,75.2047309 57.952541,69.8047309 C59.952541,62.4647309 62.952541,54.6747309 63.382541,47.1147309 C63.562541,43.7647309 63.992541,40.2847309 60.692541,38.0047309 C57.132541,35.5447309 50.692541,37.4847309 47.892541,40.0647309 Z" id="Path" stroke="#151400" stroke-width="2" fill="#FFE501" stroke-linecap="round" stroke-linejoin="round"></path>
            <path d="M57.622541,65.0747309 C57.5034585,65.0034408 57.3798642,64.9399734 57.252541,64.8847309 C53.672541,63.3947309 49.302541,65.4147309 46.862541,67.7447309 C44.5939445,70.1846755 43.5822853,73.5371812 44.122541,76.8247309 C44.492541,79.2747309 46.632541,82.8847309 50.122541,82.1047309 C52.752541,81.5147309 54.762541,78.2047309 55.662541,76.1047309 C56.562541,74.0047309 57.422541,72.1047309 58.142541,70.1047309 C58.642541,68.6347309 59.352541,66.1847309 57.622541,65.0747309 Z" id="Path" stroke="#151400" stroke-width="2" fill="#00C25E" stroke-linecap="round" stroke-linejoin="round"></path>
            <path d="M76.982541,66.9747309 C76.865638,66.8995886 76.741725,66.8359575 76.612541,66.7847309 C73.012541,65.3247309 68.672541,67.3847309 66.252541,69.7847309 C63.832541,72.1847309 63.142541,75.8747309 63.632541,78.8947309 C64.032541,81.3347309 66.212541,84.8947309 69.632541,84.1047309 C72.252541,83.4947309 74.222541,80.1647309 75.092541,78.1047309 C75.962541,76.0447309 76.812541,74.1047309 77.502541,72.0447309 C78.042541,70.5147309 78.762541,68.0547309 76.982541,66.9747309 Z" id="Path" stroke="#151400" stroke-width="2" fill="#FFE500" stroke-linecap="round" stroke-linejoin="round"></path>
            <path d="M97.472541,68.9147309 C90.472541,66.4147309 83.252541,66.6347309 75.862541,66.3247309 C70.862541,66.1047309 66.402541,66.1447309 62.122541,68.7647309 C54.922541,73.1747309 54.342541,82.2647309 60.932541,87.7047309 C64.662541,90.7747309 69.192541,90.1647309 73.592541,90.4147309 C73.422541,94.8747309 72.942541,100.484731 75.212541,104.564731" id="Path" stroke="#151400" stroke-width="2" fill="#FFE501" stroke-linecap="round" stroke-linejoin="round"></path>
            <path d="M63.552541,68.1947309 C61.552541,69.2647309 60.612541,70.8947309 62.432541,73.3647309 C64.782541,76.5447309 68.792541,77.5747309 72.572541,77.3647309 C76.972541,77.1847309 82.152541,74.4947309 82.292541,69.5647309 C82.402541,65.7147309 77.752541,66.2047309 74.822541,66.1747309 C72.762541,66.2047309 66.762541,66.4847309 63.552541,68.1947309 Z" id="Path" stroke="#151400" stroke-width="2" fill="#00C25E" stroke-linecap="round" stroke-linejoin="round"></path>
            <path d="M22.052541,111.334731 C20.572541,111.334731 19.422541,112.384731 18.212541,113.124731 C16.7861403,113.951496 15.40423,114.852742 14.072541,115.824731 C13.282541,116.434731 11.702541,117.284731 12.022541,118.504731 C12.492541,120.244731 17.562541,119.564731 19.112541,119.714731 C21.792541,119.984731 26.322541,119.964731 26.452541,116.274731 C26.532541,113.924731 24.542541,111.374731 22.052541,111.334731 Z" id="Path" stroke="#151400" stroke-width="2" fill="#FFFFFF" stroke-linecap="round" stroke-linejoin="round"></path>
            <path d="M78.632541,123.414731 C78.7565435,123.880456 78.9857583,124.311516 79.302541,124.674731 C80.302541,125.814731 81.952541,126.054731 83.302541,126.324731 C85.042541,126.654731 92.082541,127.594731 89.212541,123.774731 C87.9746525,122.064224 86.5453839,120.500752 84.952541,119.114731 C83.212541,117.644731 80.782541,118.424731 79.362541,120.174731 C78.6179795,121.077272 78.3469738,122.280093 78.632541,123.414731 Z" id="Path" stroke="#151400" stroke-width="2" fill="#FFFFFF" stroke-linecap="round" stroke-linejoin="round"></path>
            <path d="M31.762541,121.374731 C29.762541,122.924731 30.492541,128.184731 31.062541,130.224731 C31.382541,131.364731 31.892541,132.784731 33.252541,132.864731 C35.252541,132.974731 37.022541,129.464731 38.152541,128.074731 C39.502541,126.424731 40.972541,123.794731 39.152541,121.954731 C37.602541,120.484731 33.652541,119.904731 31.762541,121.374731 Z" id="Path" stroke="#151400" stroke-width="2" fill="#FFFFFF" stroke-linecap="round" stroke-linejoin="round"></path>
            <path d="M57.232541,126.824731 C55.982541,124.754731 51.452541,124.224731 49.482541,125.004731 C47.262541,125.884731 47.832541,128.874731 48.262541,130.674731 C48.642541,132.224731 49.672541,136.564731 51.702541,136.674731 C53.222541,136.764731 54.132541,135.204731 54.902541,134.094731 C56.372541,131.984731 58.652541,129.694731 57.342541,126.994731 L57.232541,126.824731 Z" id="Path" stroke="#151400" stroke-width="2" fill="#FFFFFF" stroke-linecap="round" stroke-linejoin="round"></path>
            <path d="M69.422541,124.484731 C68.7216353,124.576831 68.0436715,124.797169 67.422541,125.134731 C63.702541,127.064731 66.482541,130.994731 68.132541,133.514731 C68.872541,134.634731 69.372541,136.054731 70.952541,136.204731 C73.582541,136.464731 73.792541,131.674731 73.952541,129.844731 C74.192541,126.554731 72.242541,124.164731 69.422541,124.484731 Z" id="Path" stroke="#151400" stroke-width="2" fill="#FFFFFF" stroke-linecap="round" stroke-linejoin="round"></path>
        </g>
    </g>
</svg>